<svg width="32" height="32" viewBox="0 0 32 32" fill="none" xmlns="http://www.w3.org/2000/svg">
<path fill-rule="evenodd" clip-rule="evenodd" d="M8.76318 24.8508C8.76318 24.0754 9.42624 23.4478 10.2453 23.4478C11.0546 23.4478 11.7177 24.0754 11.7177 24.8508C11.7177 25.617 11.0546 26.2447 10.2453 26.2447C9.42624 26.2447 8.76318 25.617 8.76318 24.8508ZM19.7328 24.8508C19.7328 24.0754 20.3959 23.4478 21.215 23.4478C22.0243 23.4478 22.6873 24.0754 22.6873 24.8508C22.6873 25.617 22.0243 26.2447 21.215 26.2447C20.3959 26.2447 19.7328 25.617 19.7328 24.8508Z" fill="#7A7A7A"/>
<path fill-rule="evenodd" clip-rule="evenodd" d="M22.6876 11.7068C23.2824 11.7068 23.6725 11.9006 24.0625 12.3253C24.4525 12.7499 24.5208 13.3591 24.433 13.912L23.5067 19.9674C23.3312 21.1314 22.2781 21.9889 21.0398 21.9889H10.4016C9.10476 21.9889 8.03218 21.0474 7.92492 19.8299L7.02784 9.76741L5.55547 9.52741C5.16544 9.46279 4.89241 9.10279 4.96067 8.73356C5.02893 8.3551 5.40921 8.10587 5.80899 8.16125L8.13456 8.49356C8.46609 8.54987 8.70986 8.80741 8.73911 9.12125L8.92438 11.1889C8.95363 11.4853 9.20715 11.7068 9.51917 11.7068H22.6876ZM16.7787 16.5059H19.4796C19.8892 16.5059 20.2109 16.192 20.2109 15.8136C20.2109 15.4259 19.8892 15.1213 19.4796 15.1213H16.7787C16.3691 15.1213 16.0473 15.4259 16.0473 15.8136C16.0473 16.192 16.3691 16.5059 16.7787 16.5059Z" fill="#7A7A7A"/>
<path d="M29.8025 10C29.8025 13.0121 27.2149 15.5 23.9645 15.5C20.7141 15.5 18.1265 13.0121 18.1265 10C18.1265 6.9879 20.7141 4.5 23.9645 4.5C27.2149 4.5 29.8025 6.9879 29.8025 10Z" fill="#BA3127" stroke="white"/>
<path d="M24.0005 13.112C23.3018 13.112 22.7525 12.848 22.3525 12.32C21.9578 11.7813 21.7605 11.0747 21.7605 10.2C21.7605 9.32533 21.9578 8.62133 22.3525 8.088C22.7525 7.55467 23.3018 7.288 24.0005 7.288C24.7098 7.288 25.2591 7.55467 25.6485 8.088C26.0431 8.62133 26.2405 9.32533 26.2405 10.2C26.2405 11.0747 26.0431 11.7813 25.6485 12.32C25.2591 12.848 24.7098 13.112 24.0005 13.112ZM25.1445 10.2C25.1445 9.60267 25.0458 9.14667 24.8485 8.832C24.6565 8.51733 24.3738 8.36 24.0005 8.36C23.6271 8.36 23.3445 8.51733 23.1525 8.832C22.9605 9.14667 22.8645 9.60267 22.8645 10.2C22.8645 10.7973 22.9605 11.2533 23.1525 11.568C23.3445 11.8773 23.6271 12.032 24.0005 12.032C24.3738 12.032 24.6565 11.8747 24.8485 11.56C25.0458 11.2453 25.1445 10.792 25.1445 10.2Z" fill="white"/>
</svg>
