<svg width="32" height="32" viewBox="0 0 32 32" fill="none" xmlns="http://www.w3.org/2000/svg">
<path fill-rule="evenodd" clip-rule="evenodd" d="M8.76318 24.8508C8.76318 24.0754 9.42624 23.4478 10.2453 23.4478C11.0546 23.4478 11.7177 24.0754 11.7177 24.8508C11.7177 25.617 11.0546 26.2447 10.2453 26.2447C9.42624 26.2447 8.76318 25.617 8.76318 24.8508ZM19.7328 24.8508C19.7328 24.0754 20.3959 23.4478 21.215 23.4478C22.0243 23.4478 22.6873 24.0754 22.6873 24.8508C22.6873 25.617 22.0243 26.2447 21.215 26.2447C20.3959 26.2447 19.7328 25.617 19.7328 24.8508Z" fill="#6B1D13"/>
<path fill-rule="evenodd" clip-rule="evenodd" d="M22.6876 11.7068C23.2824 11.7068 23.6725 11.9006 24.0625 12.3253C24.4525 12.7499 24.5208 13.3591 24.433 13.912L23.5067 19.9674C23.3312 21.1314 22.2781 21.9889 21.0398 21.9889H10.4016C9.10476 21.9889 8.03218 21.0474 7.92492 19.8299L7.02784 9.76741L5.55547 9.52741C5.16544 9.46279 4.89241 9.10279 4.96067 8.73356C5.02893 8.3551 5.40921 8.10587 5.80899 8.16125L8.13456 8.49356C8.46609 8.54987 8.70986 8.80741 8.73911 9.12125L8.92438 11.1889C8.95363 11.4853 9.20715 11.7068 9.51917 11.7068H22.6876ZM16.7787 16.5059H19.4796C19.8892 16.5059 20.2109 16.192 20.2109 15.8136C20.2109 15.4259 19.8892 15.1213 19.4796 15.1213H16.7787C16.3691 15.1213 16.0473 15.4259 16.0473 15.8136C16.0473 16.192 16.3691 16.5059 16.7787 16.5059Z" fill="#6B1D13"/>
<path d="M29.8025 10C29.8025 13.0121 27.2149 15.5 23.9645 15.5C20.7141 15.5 18.1265 13.0121 18.1265 10C18.1265 6.9879 20.7141 4.5 23.9645 4.5C27.2149 4.5 29.8025 6.9879 29.8025 10Z" fill="#BA3127" stroke="white"/>
<path d="M20.4161 7.92L21.8881 7.4H22.8481V13H21.7441V8.568L20.6881 8.864L20.4161 7.92ZM27.3819 13H23.6379V12.176L25.5499 10.208C25.9765 9.75467 26.1899 9.38133 26.1899 9.088C26.1899 8.86933 26.1205 8.69333 25.9819 8.56C25.8485 8.42667 25.6752 8.36 25.4619 8.36C25.0352 8.36 24.7232 8.57867 24.5259 9.016L23.5979 8.472C23.7685 8.09333 24.0165 7.80267 24.3419 7.6C24.6725 7.392 25.0405 7.288 25.4459 7.288C25.9525 7.288 26.3872 7.448 26.7499 7.768C27.1125 8.08267 27.2939 8.50933 27.2939 9.048C27.2939 9.62933 26.9872 10.2267 26.3739 10.84L25.2779 11.936H27.3819V13Z" fill="white"/>
</svg>
