<svg width="32" height="32" viewBox="0 0 32 32" fill="none" xmlns="http://www.w3.org/2000/svg">
<path d="M22.0266 7.53345L17.8933 4.33345C17.36 3.80011 16.16 3.53345 15.36 3.53345H10.2933C8.6933 3.53345 6.95997 4.73345 6.55997 6.33345L3.35997 16.0668C2.6933 17.9334 3.8933 19.5334 5.8933 19.5334H11.2266C12.0266 19.5334 12.6933 20.2001 12.56 21.1334L11.8933 25.4001C11.6266 26.6001 12.4266 27.9334 13.6266 28.3334C14.6933 28.7334 16.0266 28.2001 16.56 27.4001L22.0266 19.2668" stroke="#292D32" stroke-width="1.5" stroke-miterlimit="10"/>
<path d="M28.8268 7.53333V20.6C28.8268 22.4667 28.0268 23.1333 26.1602 23.1333H24.8268C22.9602 23.1333 22.1602 22.4667 22.1602 20.6V7.53333C22.1602 5.66667 22.9602 5 24.8268 5H26.1602C28.0268 5 28.8268 5.66667 28.8268 7.53333Z" stroke="#292D32" stroke-width="1.5" stroke-linecap="round" stroke-linejoin="round"/>
</svg>
