<svg width="32" height="32" viewBox="0 0 32 32" fill="none" xmlns="http://www.w3.org/2000/svg">
<path d="M9.97314 24.4668L14.1065 27.6668C14.6398 28.2001 15.8398 28.4668 16.6398 28.4668H21.7065C23.3065 28.4668 25.0398 27.2668 25.4398 25.6668L28.6398 15.9335C29.3065 14.0668 28.1065 12.4668 26.1065 12.4668H20.7731C19.9731 12.4668 19.3065 11.8001 19.4398 10.8668L20.1065 6.60012C20.3731 5.40012 19.5731 4.06679 18.3731 3.66679C17.3065 3.26679 15.9731 3.80012 15.4398 4.60012L9.97314 12.7335" stroke="#292D32" stroke-width="1.5" stroke-miterlimit="10"/>
<path d="M3.17334 24.4667V11.4C3.17334 9.53337 3.97334 8.8667 5.84001 8.8667H7.17334C9.04001 8.8667 9.84001 9.53337 9.84001 11.4V24.4667C9.84001 26.3334 9.04001 27 7.17334 27H5.84001C3.97334 27 3.17334 26.3334 3.17334 24.4667Z" stroke="#292D32" stroke-width="1.5" stroke-linecap="round" stroke-linejoin="round"/>
</svg>
