<svg width="32" height="32" viewBox="0 0 32 32" fill="none" xmlns="http://www.w3.org/2000/svg">
<path d="M19.3732 12.6266L12.6266 19.3732C11.7599 18.5066 11.2266 17.3199 11.2266 15.9999C11.2266 13.3599 13.3599 11.2266 15.9999 11.2266C17.3199 11.2266 18.5066 11.7599 19.3732 12.6266Z" stroke="#292D32" stroke-width="1.5" stroke-linecap="round" stroke-linejoin="round"/>
<path d="M23.7598 7.69339C21.4265 5.93339 18.7598 4.97339 15.9998 4.97339C11.2931 4.97339 6.90646 7.74672 3.85312 12.5467C2.65312 14.4267 2.65312 17.5867 3.85312 19.4667C4.90646 21.1201 6.13312 22.5467 7.46646 23.6934" stroke="#292D32" stroke-width="1.5" stroke-linecap="round" stroke-linejoin="round"/>
<path d="M11.2266 26.0399C12.7466 26.6799 14.3599 27.0266 15.9999 27.0266C20.7066 27.0266 25.0932 24.2532 28.1466 19.4532C29.3466 17.5732 29.3466 14.4132 28.1466 12.5332C27.7066 11.8399 27.2266 11.1866 26.7332 10.5732" stroke="#292D32" stroke-width="1.5" stroke-linecap="round" stroke-linejoin="round"/>
<path d="M20.6799 16.9333C20.3333 18.8133 18.7999 20.3467 16.9199 20.6934" stroke="#292D32" stroke-width="1.5" stroke-linecap="round" stroke-linejoin="round"/>
<path d="M12.6265 19.3733L2.6665 29.3333" stroke="#292D32" stroke-width="1.5" stroke-linecap="round" stroke-linejoin="round"/>
<path d="M29.3335 2.66675L19.3735 12.6267" stroke="#292D32" stroke-width="1.5" stroke-linecap="round" stroke-linejoin="round"/>
</svg>
