<svg width="28" height="28" viewBox="0 0 28 28" fill="none" xmlns="http://www.w3.org/2000/svg">
<path fill-rule="evenodd" clip-rule="evenodd" d="M4.22217 13.6117C4.22217 8.42642 8.42569 4.2229 13.611 4.2229C18.7963 4.2229 22.9998 8.42642 22.9998 13.6117C22.9998 18.797 18.7963 23.0005 13.611 23.0005C8.42569 23.0005 4.22217 18.797 4.22217 13.6117ZM13.611 5.83091C9.31377 5.83091 5.83018 9.3145 5.83018 13.6117C5.83018 17.9089 9.31377 21.3925 13.611 21.3925C17.9082 21.3925 21.3918 17.9089 21.3918 13.6117C21.3918 9.3145 17.9082 5.83091 13.611 5.83091Z" fill="#212224"/>
<path fill-rule="evenodd" clip-rule="evenodd" d="M13.6917 12.8868C14.1357 12.8868 14.4957 13.2108 14.4957 13.6104V16.7549C14.4957 17.1546 14.1357 17.4785 13.6917 17.4785C13.2477 17.4785 12.8877 17.1546 12.8877 16.7549V13.6104C12.8877 13.2108 13.2477 12.8868 13.6917 12.8868Z" fill="#212224"/>
<path fill-rule="evenodd" clip-rule="evenodd" d="M13.6907 9.35022C14.1348 9.35022 14.4947 9.67419 14.4947 10.0738V10.4669C14.4947 10.8665 14.1348 11.1905 13.6907 11.1905C13.2467 11.1905 12.8867 10.8665 12.8867 10.4669V10.0738C12.8867 9.67419 13.2467 9.35022 13.6907 9.35022Z" fill="#212224"/>
</svg>
