<svg width="32" height="32" viewBox="0 0 32 32" fill="none" xmlns="http://www.w3.org/2000/svg">
<path d="M29.3332 6.22659V22.3199C29.3332 23.5999 28.2932 24.7999 27.0132 24.9599L26.5732 25.0133C23.6665 25.4 19.1865 26.8799 16.6265 28.2932C16.2798 28.4932 15.7065 28.4932 15.3465 28.2932L15.2931 28.2666C12.7331 26.8666 8.26654 25.4 5.37321 25.0133L4.98649 24.9599C3.70649 24.7999 2.6665 23.5999 2.6665 22.3199V6.21325C2.6665 4.62658 3.9598 3.42659 5.54647 3.55993C8.34647 3.78659 12.5865 5.19996 14.9598 6.67996L15.2931 6.87991C15.6798 7.11991 16.3199 7.11991 16.7065 6.87991L16.9332 6.73327C17.7732 6.21327 18.8398 5.69326 19.9998 5.22659V10.6666L22.6665 8.89326L25.3332 10.6666V3.70665C25.6932 3.63999 26.0399 3.59994 26.3599 3.57327H26.4399C28.0265 3.43994 29.3332 4.62659 29.3332 6.22659Z" stroke="#292D32" stroke-width="1.5" stroke-linecap="round" stroke-linejoin="round"/>
<path d="M16 7.32007V27.3201" stroke="#292D32" stroke-width="1.5" stroke-linecap="round" stroke-linejoin="round"/>
<path d="M25.3333 3.70679V10.6667L22.6667 8.89339L20 10.6667V5.22673C21.7467 4.53339 23.6933 3.97345 25.3333 3.70679Z" stroke="#292D32" stroke-width="1.5" stroke-linecap="round" stroke-linejoin="round"/>
</svg>
