<svg width="32" height="32" viewBox="0 0 32 32" fill="none" xmlns="http://www.w3.org/2000/svg">
<path d="M8.93319 24.0001H5.5332C3.62654 24.0001 2.6665 23.04 2.6665 21.1334V5.53345C2.6665 3.62678 3.62654 2.66675 5.5332 2.66675H11.2665C13.1732 2.66675 14.1331 3.62678 14.1331 5.53345V8.00008" stroke="#292D32" stroke-width="1.5" stroke-miterlimit="10" stroke-linecap="round" stroke-linejoin="round"/>
<path d="M17.8667 8.00008V5.53345C17.8667 3.62678 18.8267 2.66675 20.7333 2.66675H26.4666C28.3733 2.66675 29.3333 3.62678 29.3333 5.53345V21.1334C29.3333 23.04 28.3733 24.0001 26.4666 24.0001H23.16" stroke="#292D32" stroke-width="1.5" stroke-miterlimit="10" stroke-linecap="round" stroke-linejoin="round"/>
<path d="M23.1602 11.2266V26.1067C23.1602 28.2534 22.0936 29.3333 19.9469 29.3333H12.1602C10.0136 29.3333 8.93359 28.2534 8.93359 26.1067V11.2266C8.93359 9.07998 10.0136 8 12.1602 8H19.9469C22.0936 8 23.1602 9.07998 23.1602 11.2266Z" stroke="#292D32" stroke-width="1.5" stroke-miterlimit="10" stroke-linecap="round" stroke-linejoin="round"/>
<path d="M13.3335 14.6667H18.6668" stroke="#292D32" stroke-width="1.5" stroke-miterlimit="10" stroke-linecap="round" stroke-linejoin="round"/>
<path d="M13.3335 18.6667H18.6668" stroke="#292D32" stroke-width="1.5" stroke-miterlimit="10" stroke-linecap="round" stroke-linejoin="round"/>
<path d="M16 29.3333V25.3333" stroke="#292D32" stroke-width="1.5" stroke-miterlimit="10" stroke-linecap="round" stroke-linejoin="round"/>
</svg>
