<svg width="32" height="32" viewBox="0 0 32 32" fill="none" xmlns="http://www.w3.org/2000/svg">
<path d="M28.5716 24.0001C28.5716 24.6063 28.3308 25.1877 27.9021 25.6163C27.4734 26.045 26.8921 26.2858 26.2859 26.2858H5.71443C5.10822 26.2858 4.52684 26.045 4.09818 25.6163C3.66953 25.1877 3.42871 24.6063 3.42871 24.0001V11.4286C3.42871 10.8224 3.66953 10.2411 4.09818 9.8124C4.52684 9.38374 5.10822 9.14293 5.71443 9.14293H10.2859L12.5716 5.71436H19.4287L21.7144 9.14293H26.2859C26.8921 9.14293 27.4734 9.38374 27.9021 9.8124C28.3308 10.2411 28.5716 10.8224 28.5716 11.4286V24.0001Z" stroke="#1A1919" stroke-width="1.3" stroke-linecap="round" stroke-linejoin="round"/>
<path d="M16.0001 21.7144C18.5249 21.7144 20.5716 19.6677 20.5716 17.1429C20.5716 14.6182 18.5249 12.5715 16.0001 12.5715C13.4754 12.5715 11.4287 14.6182 11.4287 17.1429C11.4287 19.6677 13.4754 21.7144 16.0001 21.7144Z" stroke="#1A1919" stroke-width="1.3" stroke-linecap="round" stroke-linejoin="round"/>
</svg>
