<svg width="32" height="32" viewBox="0 0 32 32" fill="none" xmlns="http://www.w3.org/2000/svg">
<path d="M20.6802 3.77344H11.3202C8.00016 3.77344 7.26683 5.42677 6.84016 7.45344L5.3335 14.6668H26.6668L25.1602 7.45344C24.7335 5.42677 24.0002 3.77344 20.6802 3.77344Z" stroke="#292D32" stroke-width="1.5" stroke-linecap="round" stroke-linejoin="round"/>
<path d="M29.3201 26.4267C29.4668 27.9867 28.2135 29.3334 26.6135 29.3334H24.1068C22.6668 29.3334 22.4668 28.7201 22.2135 27.9601L21.9468 27.1601C21.5735 26.0667 21.3335 25.3334 19.4135 25.3334H12.5868C10.6668 25.3334 10.3868 26.1601 10.0535 27.1601L9.7868 27.9601C9.53347 28.7201 9.33347 29.3334 7.89347 29.3334H5.3868C3.7868 29.3334 2.53347 27.9867 2.68014 26.4267L3.4268 18.3067C3.61347 16.3067 4.00014 14.6667 7.49347 14.6667H24.5068C28.0001 14.6667 28.3868 16.3067 28.5735 18.3067L29.3201 26.4267Z" stroke="#292D32" stroke-width="1.5" stroke-linecap="round" stroke-linejoin="round"/>
<path d="M5.33333 10.6667H4" stroke="#292D32" stroke-width="1.5" stroke-linecap="round" stroke-linejoin="round"/>
<path d="M27.9998 10.6667H26.6665" stroke="#292D32" stroke-width="1.5" stroke-linecap="round" stroke-linejoin="round"/>
<path d="M16 4V6.66667" stroke="#292D32" stroke-width="1.5" stroke-linecap="round" stroke-linejoin="round"/>
<path d="M14 6.66675H18" stroke="#292D32" stroke-width="1.5" stroke-linecap="round" stroke-linejoin="round"/>
<path d="M8 20H12" stroke="#292D32" stroke-width="1.5" stroke-linecap="round" stroke-linejoin="round"/>
<path d="M20 20H24" stroke="#292D32" stroke-width="1.5" stroke-linecap="round" stroke-linejoin="round"/>
</svg>
