<svg width="32" height="32" viewBox="0 0 32 32" fill="none" xmlns="http://www.w3.org/2000/svg">
<path d="M5.71436 9.14296H8.00007M8.00007 9.14296H26.2858M8.00007 9.14296V25.143C8.00007 25.7492 8.24089 26.3306 8.66954 26.7592C9.09819 27.1879 9.67957 27.4287 10.2858 27.4287H21.7144C22.3206 27.4287 22.9019 27.1879 23.3306 26.7592C23.7593 26.3306 24.0001 25.7492 24.0001 25.143V9.14296H8.00007ZM11.4286 9.14296V6.85725C11.4286 6.25104 11.6695 5.66966 12.0981 5.241C12.5268 4.81235 13.1081 4.57153 13.7144 4.57153H18.2858C18.892 4.57153 19.4734 4.81235 19.902 5.241C20.3307 5.66966 20.5715 6.25104 20.5715 6.85725V9.14296M13.7144 14.8572V21.7144M18.2858 14.8572V21.7144" stroke="#171D25" stroke-width="1.3" stroke-linecap="round" stroke-linejoin="round"/>
</svg>
