<svg width="32" height="32" viewBox="0 0 32 32" fill="none" xmlns="http://www.w3.org/2000/svg">
<path d="M11.9998 29.3334H19.9998C26.6665 29.3334 29.3332 26.6667 29.3332 20.0001V12.0001C29.3332 5.33341 26.6665 2.66675 19.9998 2.66675H11.9998C5.33317 2.66675 2.6665 5.33341 2.6665 12.0001V20.0001C2.6665 26.6667 5.33317 29.3334 11.9998 29.3334Z" stroke="#292D32" stroke-width="1.5" stroke-linecap="round" stroke-linejoin="round"/>
<path d="M13.3335 22.6666H18.6668C20.8668 22.6666 22.6668 20.8666 22.6668 18.6666V13.3333C22.6668 11.1333 20.8668 9.33325 18.6668 9.33325H13.3335C11.1335 9.33325 9.3335 11.1333 9.3335 13.3333V18.6666C9.3335 20.8666 11.1335 22.6666 13.3335 22.6666Z" stroke="#292D32" stroke-width="1.5" stroke-linecap="round" stroke-linejoin="round"/>
<path d="M16 9.33325V22.6666" stroke="#292D32" stroke-width="1.5" stroke-linecap="round" stroke-linejoin="round"/>
<path d="M9.3335 16H22.6668" stroke="#292D32" stroke-width="1.5" stroke-linecap="round" stroke-linejoin="round"/>
</svg>
