<svg width="32" height="32" viewBox="0 0 32 32" fill="none" xmlns="http://www.w3.org/2000/svg">
<path d="M29.3332 12.0001V20.0001C29.3332 23.3334 28.6665 25.6668 27.1732 27.1734L18.6665 18.6668L28.9732 8.36011C29.2132 9.41344 29.3332 10.6134 29.3332 12.0001Z" stroke="#292D32" stroke-width="1.5" stroke-linecap="round" stroke-linejoin="round"/>
<path d="M28.9732 8.36009L8.35982 28.9734C4.34649 28.0534 2.6665 25.2801 2.6665 20.0001V12.0001C2.6665 5.33341 5.33317 2.66675 11.9998 2.66675H19.9998C25.2798 2.66675 28.0532 4.34675 28.9732 8.36009Z" stroke="#292D32" stroke-width="1.5" stroke-linecap="round" stroke-linejoin="round"/>
<path d="M27.1732 27.1734C25.6666 28.6668 23.3332 29.3334 19.9999 29.3334H11.9999C10.6132 29.3334 9.4132 29.2134 8.35986 28.9734L18.6665 18.6667L27.1732 27.1734Z" stroke="#292D32" stroke-width="1.5" stroke-linecap="round" stroke-linejoin="round"/>
<path d="M8.31986 10.64C9.22653 6.73329 15.0932 6.73329 15.9999 10.64C16.5199 12.9333 15.0799 14.88 13.8132 16.08C12.8932 16.96 11.4399 16.96 10.5065 16.08C9.23988 14.88 7.78653 12.9333 8.31986 10.64Z" stroke="#292D32" stroke-width="1.5"/>
<path d="M12.1261 11.6H12.1381" stroke="#292D32" stroke-width="2" stroke-linecap="round" stroke-linejoin="round"/>
</svg>
