<svg width="32" height="32" viewBox="0 0 32 32" fill="none" xmlns="http://www.w3.org/2000/svg">
<path d="M29.2399 9.01343L24.7465 27.0535C24.4265 28.4001 23.2265 29.3334 21.8399 29.3334H4.31985C2.30651 29.3334 0.866535 27.36 1.46653 25.4267L7.07986 7.40015C7.46652 6.14681 8.62654 5.28003 9.93321 5.28003H26.3332C27.5999 5.28003 28.6532 6.05337 29.0932 7.12004C29.3465 7.69337 29.3999 8.34676 29.2399 9.01343Z" stroke="#292D32" stroke-width="1.5" stroke-miterlimit="10"/>
<path d="M21.3335 29.3333H27.7068C29.4268 29.3333 30.7735 27.88 30.6535 26.16L29.3335 8" stroke="#292D32" stroke-width="1.5" stroke-miterlimit="10" stroke-linecap="round" stroke-linejoin="round"/>
<path d="M12.9067 8.50675L14.2934 2.74683" stroke="#292D32" stroke-width="1.5" stroke-miterlimit="10" stroke-linecap="round" stroke-linejoin="round"/>
<path d="M21.8398 8.52002L23.0932 2.7334" stroke="#292D32" stroke-width="1.5" stroke-miterlimit="10" stroke-linecap="round" stroke-linejoin="round"/>
<path d="M10.2666 16H20.9333" stroke="#292D32" stroke-width="1.5" stroke-miterlimit="10" stroke-linecap="round" stroke-linejoin="round"/>
<path d="M8.93359 21.3333H19.6003" stroke="#292D32" stroke-width="1.5" stroke-miterlimit="10" stroke-linecap="round" stroke-linejoin="round"/>
</svg>
