<svg width="32" height="32" viewBox="0 0 32 32" fill="none" xmlns="http://www.w3.org/2000/svg">
<path d="M28 4L19.4851 27.5797C19.4276 27.7051 19.3354 27.8114 19.2193 27.8859C19.1032 27.9604 18.9681 28 18.8301 28C18.6922 28 18.5571 27.9604 18.441 27.8859C18.3249 27.8114 18.2326 27.7051 18.1751 27.5797L13.5902 18.4098L4.42034 13.8249C4.29492 13.7674 4.18863 13.6751 4.11412 13.559C4.03961 13.4429 4 13.3078 4 13.1699C4 13.0319 4.03961 12.8968 4.11412 12.7807C4.18863 12.6646 4.29492 12.5724 4.42034 12.5149L28 4Z" stroke="black" stroke-width="1.3" stroke-linecap="round" stroke-linejoin="round"/>
</svg>
