<svg width="32" height="32" viewBox="0 0 32 32" fill="none" xmlns="http://www.w3.org/2000/svg">
<path d="M12.2134 14.4934C12.0801 14.4801 11.9201 14.4801 11.7734 14.4934C8.60008 14.3867 6.08008 11.7867 6.08008 8.58675C6.08008 5.32008 8.72008 2.66675 12.0001 2.66675C15.2667 2.66675 17.9201 5.32008 17.9201 8.58675C17.9067 11.7867 15.3867 14.3867 12.2134 14.4934Z" stroke="#292D32" stroke-width="1.5" stroke-linecap="round" stroke-linejoin="round"/>
<path d="M21.8799 5.33325C24.4665 5.33325 26.5465 7.42659 26.5465 9.99992C26.5465 12.5199 24.5465 14.5733 22.0532 14.6666C21.9465 14.6533 21.8265 14.6533 21.7065 14.6666" stroke="#292D32" stroke-width="1.5" stroke-linecap="round" stroke-linejoin="round"/>
<path d="M5.54646 19.4133C2.3198 21.5733 2.3198 25.0933 5.54646 27.2399C9.21313 29.6933 15.2265 29.6933 18.8931 27.2399C22.1198 25.0799 22.1198 21.5599 18.8931 19.4133C15.2398 16.9733 9.22646 16.9733 5.54646 19.4133Z" stroke="#292D32" stroke-width="1.5" stroke-linecap="round" stroke-linejoin="round"/>
<path d="M24.4531 26.6667C25.4131 26.4667 26.3198 26.0801 27.0665 25.5067C29.1465 23.9467 29.1465 21.3734 27.0665 19.8134C26.3331 19.2534 25.4398 18.8801 24.4931 18.6667" stroke="#292D32" stroke-width="1.5" stroke-linecap="round" stroke-linejoin="round"/>
</svg>
