<svg width="32" height="32" viewBox="0 0 32 32" fill="none" xmlns="http://www.w3.org/2000/svg">
<path fill-rule="evenodd" clip-rule="evenodd" d="M14.4014 4.04114C14.191 4.12962 14.0477 4.33621 14.0119 4.60227C13.9813 4.82987 14.0002 4.87783 14.199 5.0761C14.4106 5.28713 14.4395 5.2967 14.8653 5.2967H15.3104V5.66468V6.03266L14.9499 6.0773C14.7517 6.10187 14.3638 6.19273 14.0879 6.2792C12.3256 6.83158 10.9649 7.9432 10.0859 9.5486C9.86721 9.94809 9.48023 11.0026 9.48023 11.1992C9.48023 11.2904 10.0611 11.2994 16 11.2994C21.5346 11.2994 22.5197 11.2862 22.5197 11.2122C22.5197 11.1642 22.4623 10.9395 22.392 10.7127C21.6522 8.32381 19.5434 6.46835 17.144 6.09531L16.6895 6.02459V5.66068V5.2967H17.1346C17.5604 5.2967 17.5893 5.28713 17.8009 5.0761C18.0008 4.8767 18.0187 4.83074 17.9874 4.59758C17.9658 4.43682 17.8914 4.27856 17.79 4.17726L17.6273 4.01488L16.077 4.00162C15.2244 3.99437 14.4703 4.01213 14.4014 4.04114ZM14.3999 7.57059C13.8374 7.75236 13.2367 8.05531 12.8195 8.36764C12.3765 8.69922 11.7623 9.33701 11.6685 9.56273C11.5518 9.8438 11.6578 10.1687 11.9251 10.3488C12.2836 10.5904 12.4678 10.5191 13.1398 9.87831C13.7511 9.29543 14.2826 8.98135 15.0085 8.77394C15.4478 8.64839 15.6244 8.45061 15.6224 8.08639C15.6209 7.81408 15.4995 7.61086 15.2675 7.4925C15.0728 7.3932 14.9008 7.40871 14.3999 7.57059ZM0.734455 10.7907C0.596287 10.8534 0.392922 11.0071 0.282651 11.1324C-0.121697 11.5917 -0.129032 11.4224 0.502504 16.1933C1.12539 20.8996 1.12758 20.9096 1.60616 21.387C1.73229 21.5128 1.95458 21.6756 2.10021 21.7488C2.24578 21.822 2.37504 21.8909 2.38733 21.9019C2.39968 21.9128 2.13526 23.1473 1.7998 24.6453C1.24519 27.1218 1.19723 27.3865 1.27089 27.5639C1.36342 27.7867 1.66402 27.9939 1.89478 27.9939C2.11049 27.9939 2.43805 27.7831 2.49459 27.6079C2.52036 27.5281 2.81431 26.2389 3.14776 24.7429L3.75415 22.0229H6.15874H8.56339L9.26708 24.8298C10.0442 27.9296 10.0358 27.909 10.5346 27.9758C10.7684 28.007 10.8145 27.9892 11.0144 27.7898C11.1809 27.6237 11.2351 27.5174 11.2338 27.3597C11.2328 27.2445 10.94 25.9896 10.5831 24.5709C10.0392 22.4092 9.95071 21.9916 10.0363 21.9913C10.4705 21.9899 10.9867 21.6379 11.1813 21.2106C11.3309 20.8822 11.3273 20.5318 11.1678 19.9074C10.9482 19.0475 10.6448 18.6165 10.027 18.2873C9.76772 18.1491 9.71406 18.1458 7.39912 18.1278C5.23576 18.1109 5.03327 18.1003 5.00437 18.0027C4.98695 17.944 4.58893 16.4636 4.11982 14.7129C3.65072 12.9621 3.22869 11.4567 3.18199 11.3676C3.05924 11.1334 2.77626 10.883 2.50801 10.7712C2.1634 10.6276 1.06784 10.6397 0.734455 10.7907ZM29.4782 10.7738C29.2225 10.8843 28.9373 11.1395 28.8212 11.3619C28.7763 11.4479 28.3817 12.8548 27.9442 14.4883C27.5068 16.1219 27.1071 17.6048 27.0561 17.7838L26.9634 18.1093L24.6005 18.1278C22.2858 18.1458 22.2322 18.1491 21.9729 18.2873C21.3551 18.6165 21.0517 19.0475 20.8321 19.9074C20.6726 20.5318 20.669 20.8822 20.8186 21.2106C21.0132 21.6379 21.5294 21.9899 21.9636 21.9913C22.0492 21.9916 21.9607 22.4092 21.4168 24.5709C21.0599 25.9896 20.7671 27.2445 20.7661 27.3597C20.7648 27.5159 20.8185 27.6232 20.9775 27.7818C21.2547 28.0582 21.5526 28.0723 21.8329 27.8224C22.0158 27.6593 22.0622 27.5052 22.7311 24.8367L23.4365 22.0229H25.8412H28.2458L28.8521 24.7429C29.1856 26.2389 29.4795 27.5281 29.5053 27.6079C29.5619 27.7831 29.8894 27.9939 30.1051 27.9939C30.3501 27.9939 30.6485 27.7778 30.7257 27.5445C30.7862 27.3615 30.7199 26.9985 30.1993 24.6644C29.8717 23.1956 29.6036 21.9694 29.6036 21.9396C29.6036 21.9099 29.7183 21.834 29.8586 21.7709C29.9988 21.7079 30.2272 21.5462 30.3663 21.4116C30.8737 20.9204 30.8706 20.9349 31.498 16.1922C32.129 11.4225 32.1217 11.5918 31.7173 11.1324C31.3979 10.7695 31.1198 10.6767 30.3559 10.6779C29.9081 10.6787 29.6275 10.7093 29.4782 10.7738ZM6.30938 12.7466C6.03129 12.8812 5.96961 13.1064 5.96961 13.9881C5.96961 14.8842 6.03123 15.0986 6.32769 15.2333C6.43288 15.2811 9.20928 15.3012 15.7256 15.3012H24.9742L25.1575 15.1184L25.3407 14.9356V13.9881V13.0405L25.1575 12.8578L24.9742 12.675L15.707 12.6793C9.60924 12.682 6.39521 12.7051 6.30938 12.7466ZM14.6835 20.8369C14.6835 24.2877 14.6683 25.0332 14.5945 25.2094C14.525 25.3753 14.3201 25.5455 13.6567 25.9884C13.1898 26.3 12.7785 26.6097 12.7426 26.6766C12.7067 26.7434 12.6774 26.9716 12.6774 27.1836C12.6774 27.5387 12.6943 27.586 12.8905 27.7818L13.1037 27.9944H16H18.8962L19.1094 27.7818C19.308 27.5837 19.3225 27.5415 19.3225 27.1634C19.3225 26.869 19.2924 26.7214 19.2128 26.6255C19.1525 26.5528 18.7366 26.2473 18.2887 25.9464C17.8408 25.6456 17.4392 25.3291 17.3963 25.2431C17.3364 25.1231 17.3181 24.1089 17.3174 20.8818L17.3164 16.6768H16H14.6835V20.8369Z" fill="#1A1919"/>
</svg>
