<svg width="32" height="32" viewBox="0 0 32 32" fill="none" xmlns="http://www.w3.org/2000/svg">
<path d="M7.29313 12.0001C9.87046 12.0001 11.9598 9.91074 11.9598 7.33341C11.9598 4.75609 9.87046 2.66675 7.29313 2.66675C4.7158 2.66675 2.62646 4.75609 2.62646 7.33341C2.62646 9.91074 4.7158 12.0001 7.29313 12.0001Z" stroke="#292D32" stroke-width="1.5"/>
<path d="M22.6266 20H26.6266C28.0933 20 29.2933 21.2 29.2933 22.6667V26.6667C29.2933 28.1333 28.0933 29.3333 26.6266 29.3333H22.6266C21.16 29.3333 19.96 28.1333 19.96 26.6667V22.6667C19.96 21.2 21.16 20 22.6266 20Z" stroke="#292D32" stroke-width="1.5"/>
<path d="M15.9998 6.66675H19.5731C22.0398 6.66675 23.1864 9.72008 21.3331 11.3467L10.6798 20.6667C8.82643 22.2801 9.9731 25.3334 12.4264 25.3334H15.9998" stroke="#292D32" stroke-width="1.5" stroke-linecap="round" stroke-linejoin="round"/>
<path d="M7.31496 7.33341H7.33036" stroke="#292D32" stroke-width="2" stroke-linecap="round" stroke-linejoin="round"/>
<path d="M24.6485 24.6667H24.6639" stroke="#292D32" stroke-width="2" stroke-linecap="round" stroke-linejoin="round"/>
</svg>
