<svg width="32" height="32" viewBox="0 0 32 32" fill="none" xmlns="http://www.w3.org/2000/svg">
<path d="M13.9869 2.97333L7.33354 5.46666C5.8002 6.03999 4.54688 7.85331 4.54688 9.49331V19.4C4.54688 20.9733 5.58689 23.04 6.85356 23.9866L12.5869 28.2667C14.4669 29.68 17.5602 29.68 19.4402 28.2667L25.1735 23.9866C26.4402 23.04 27.4802 20.9733 27.4802 19.4V9.49331C27.4802 7.85331 26.2269 6.03999 24.6935 5.46666L18.0402 2.97333C16.9069 2.56 15.0935 2.56 13.9869 2.97333Z" stroke="#292D32" stroke-width="1.5" stroke-linecap="round" stroke-linejoin="round"/>
<path d="M15.9999 14.5601C15.9466 14.5601 15.8799 14.5601 15.8266 14.5601C14.5732 14.5201 13.5732 13.48 13.5732 12.2134C13.5732 10.92 14.6266 9.8667 15.9199 9.8667C17.2133 9.8667 18.2666 10.92 18.2666 12.2134C18.2533 13.4934 17.2533 14.5201 15.9999 14.5601Z" stroke="#292D32" stroke-width="1.5" stroke-linecap="round" stroke-linejoin="round"/>
<path d="M13.3467 18.2935C12.0667 19.1468 12.0667 20.5468 13.3467 21.4001C14.8001 22.3735 17.1867 22.3735 18.6401 21.4001C19.9201 20.5468 19.9201 19.1468 18.6401 18.2935C17.2001 17.3201 14.8134 17.3201 13.3467 18.2935Z" stroke="#292D32" stroke-width="1.5" stroke-linecap="round" stroke-linejoin="round"/>
</svg>
