<svg width="32" height="32" viewBox="0 0 32 32" fill="none" xmlns="http://www.w3.org/2000/svg">
<path d="M12.1029 17.7258L19.9086 22.2744M19.8972 9.72582L12.1029 14.2744M26.2858 8.0001C26.2858 9.89365 24.7508 11.4287 22.8572 11.4287C20.9637 11.4287 19.4286 9.89365 19.4286 8.0001C19.4286 6.10656 20.9637 4.57153 22.8572 4.57153C24.7508 4.57153 26.2858 6.10656 26.2858 8.0001ZM12.5715 16.0001C12.5715 17.8937 11.0365 19.4287 9.14293 19.4287C7.24938 19.4287 5.71436 17.8937 5.71436 16.0001C5.71436 14.1066 7.24938 12.5715 9.14293 12.5715C11.0365 12.5715 12.5715 14.1066 12.5715 16.0001ZM26.2858 24.0001C26.2858 25.8937 24.7508 27.4287 22.8572 27.4287C20.9637 27.4287 19.4286 25.8937 19.4286 24.0001C19.4286 22.1066 20.9637 20.5715 22.8572 20.5715C24.7508 20.5715 26.2858 22.1066 26.2858 24.0001Z" stroke="#333333" stroke-width="1.5" stroke-linecap="round" stroke-linejoin="round"/>
</svg>
