<svg width="32" height="32" viewBox="0 0 32 32" fill="none" xmlns="http://www.w3.org/2000/svg">
<path d="M22.6133 8.22656C25.2799 10.0799 27.12 13.0266 27.4933 16.4266" stroke="#292D32" stroke-width="1.5" stroke-linecap="round" stroke-linejoin="round"/>
<path d="M4.65332 16.4932C4.99999 13.1065 6.81332 10.1599 9.45332 8.29321" stroke="#292D32" stroke-width="1.5" stroke-linecap="round" stroke-linejoin="round"/>
<path d="M10.9199 27.9199C12.4666 28.7066 14.2266 29.1466 16.0799 29.1466C17.8666 29.1466 19.5466 28.7466 21.0533 28.0133" stroke="#292D32" stroke-width="1.5" stroke-linecap="round" stroke-linejoin="round"/>
<path d="M16.0802 10.2666C18.1273 10.2666 19.7869 8.60707 19.7869 6.55994C19.7869 4.5128 18.1273 2.85327 16.0802 2.85327C14.0331 2.85327 12.3735 4.5128 12.3735 6.55994C12.3735 8.60707 14.0331 10.2666 16.0802 10.2666Z" stroke="#292D32" stroke-width="1.5" stroke-linecap="round" stroke-linejoin="round"/>
<path d="M6.44007 26.5601C8.4872 26.5601 10.1467 24.9005 10.1467 22.8534C10.1467 20.8063 8.4872 19.1467 6.44007 19.1467C4.39293 19.1467 2.7334 20.8063 2.7334 22.8534C2.7334 24.9005 4.39293 26.5601 6.44007 26.5601Z" stroke="#292D32" stroke-width="1.5" stroke-linecap="round" stroke-linejoin="round"/>
<path d="M25.5602 26.5601C27.6073 26.5601 29.2669 24.9005 29.2669 22.8534C29.2669 20.8063 27.6073 19.1467 25.5602 19.1467C23.513 19.1467 21.8535 20.8063 21.8535 22.8534C21.8535 24.9005 23.513 26.5601 25.5602 26.5601Z" stroke="#292D32" stroke-width="1.5" stroke-linecap="round" stroke-linejoin="round"/>
</svg>
