<svg width="32" height="32" viewBox="0 0 32 32" fill="none" xmlns="http://www.w3.org/2000/svg">
<path d="M29.3333 11.3334C29.3333 16.1201 25.4533 20.0001 20.6667 20.0001C20.44 20.0001 20.2 19.9868 19.9733 19.9734C19.64 15.7468 16.2533 12.3601 12.0267 12.0267C12.0133 11.8001 12 11.5601 12 11.3334C12 6.54675 15.88 2.66675 20.6667 2.66675C25.4533 2.66675 29.3333 6.54675 29.3333 11.3334Z" stroke="#292D32" stroke-width="1.5" stroke-linecap="round" stroke-linejoin="round"/>
<path d="M19.9998 20.6667C19.9998 25.4533 16.1198 29.3333 11.3332 29.3333C6.5465 29.3333 2.6665 25.4533 2.6665 20.6667C2.6665 15.88 6.5465 12 11.3332 12C11.5598 12 11.7998 12.0133 12.0265 12.0267C16.2532 12.36 19.6399 15.7467 19.9732 19.9733C19.9865 20.2 19.9998 20.44 19.9998 20.6667Z" stroke="#292D32" stroke-width="1.5" stroke-linecap="round" stroke-linejoin="round"/>
<path d="M7.45317 2.66675H3.99984C3.2665 2.66675 2.6665 3.26675 2.6665 4.00008V7.45341C2.6665 8.64008 4.10649 9.24007 4.94649 8.40007L8.39982 4.94674C9.22649 4.10674 8.63983 2.66675 7.45317 2.66675Z" stroke="#292D32" stroke-width="1.5" stroke-linecap="round" stroke-linejoin="round"/>
<path d="M24.5466 29.3333H27.9999C28.7333 29.3333 29.3333 28.7333 29.3333 28V24.5467C29.3333 23.36 27.8933 22.76 27.0533 23.6L23.6 27.0534C22.7733 27.8934 23.36 29.3333 24.5466 29.3333Z" stroke="#292D32" stroke-width="1.5" stroke-linecap="round" stroke-linejoin="round"/>
</svg>
