<svg width="32" height="32" viewBox="0 0 32 32" fill="none" xmlns="http://www.w3.org/2000/svg">
<path d="M16 28C22.6274 28 28 22.6274 28 16C28 9.37258 22.6274 4 16 4C9.37258 4 4 9.37258 4 16C4 22.6274 9.37258 28 16 28Z" stroke="#1A1919" stroke-width="1.5" stroke-linecap="round" stroke-linejoin="round"/>
<path d="M15.9998 28C18.9454 28 21.3332 22.6274 21.3332 16C21.3332 9.37258 18.9454 4 15.9998 4C13.0543 4 10.6665 9.37258 10.6665 16C10.6665 22.6274 13.0543 28 15.9998 28Z" stroke="#1A1919" stroke-width="1.5" stroke-linecap="round" stroke-linejoin="round"/>
<path d="M4 16.0001C4 18.9456 9.37258 21.3334 16 21.3334C22.6274 21.3334 28 18.9456 28 16.0001C28 13.0546 22.6274 10.6667 16 10.6667C9.37258 10.6667 4 13.0546 4 16.0001Z" stroke="#1A1919" stroke-width="1.5" stroke-linecap="round" stroke-linejoin="round"/>
</svg>
