<svg width="24" height="24" viewBox="0 0 24 24" fill="none" xmlns="http://www.w3.org/2000/svg">
<path d="M21 17.8805C21 18.1865 20.9319 18.501 20.7872 18.807C20.6425 19.113 20.4552 19.402 20.2083 19.674C19.7912 20.133 19.3315 20.4645 18.8122 20.677C18.3015 20.8895 17.7481 21 17.1522 21C16.2839 21 15.356 20.796 14.3771 20.3795C13.3981 19.963 12.4191 19.402 11.4487 18.6965C10.4697 17.9825 9.54181 17.192 8.65648 16.3165C7.77967 15.4325 6.98798 14.506 6.28142 13.537C5.58337 12.568 5.02153 11.599 4.61292 10.6385C4.20431 9.6695 4 8.743 4 7.859C4 7.281 4.10215 6.7285 4.30646 6.2185C4.51077 5.7 4.83425 5.224 5.28543 4.799C5.83025 4.2635 6.42614 4 7.05608 4C7.29444 4 7.5328 4.051 7.74562 4.153C7.96695 4.255 8.16274 4.408 8.31597 4.629L10.2909 7.4085C10.4442 7.621 10.5548 7.8165 10.6314 8.0035C10.7081 8.182 10.7506 8.3605 10.7506 8.522C10.7506 8.726 10.691 8.93 10.5719 9.1255C10.4612 9.321 10.2994 9.525 10.0951 9.729L9.44817 10.4005C9.35453 10.494 9.31197 10.6045 9.31197 10.7405C9.31197 10.8085 9.32048 10.868 9.33751 10.936C9.36305 11.004 9.38858 11.055 9.40561 11.106C9.55884 11.3865 9.82273 11.752 10.1973 12.194C10.5804 12.636 10.989 13.0865 11.4316 13.537C11.8913 13.9875 12.334 14.404 12.7852 14.7865C13.2278 15.1605 13.5939 15.4155 13.8833 15.5685C13.9259 15.5855 13.977 15.611 14.0366 15.6365C14.1047 15.662 14.1728 15.6705 14.2494 15.6705C14.3941 15.6705 14.5048 15.6195 14.5984 15.526L15.2454 14.8885C15.4582 14.676 15.6625 14.5145 15.8583 14.4125C16.0541 14.2935 16.2499 14.234 16.4627 14.234C16.6244 14.234 16.7947 14.268 16.982 14.3445C17.1693 14.421 17.365 14.5315 17.5779 14.676L20.3956 16.6735C20.6169 16.8265 20.7702 17.005 20.8638 17.2175C20.9489 17.43 21 17.6425 21 17.8805Z" stroke="#292D32" stroke-width="1.5" stroke-miterlimit="10"/>
</svg>
