<svg width="24" height="24" viewBox="0 0 24 24" fill="none" xmlns="http://www.w3.org/2000/svg">
<path d="M11.9999 14.5714C13.42 14.5714 14.5713 13.4201 14.5713 12C14.5713 10.5798 13.42 9.42855 11.9999 9.42855C10.5797 9.42855 9.42843 10.5798 9.42843 12C9.42843 13.4201 10.5797 14.5714 11.9999 14.5714Z" stroke="#212224" stroke-width="1.3" stroke-linecap="round" stroke-linejoin="round"/>
<path d="M18.3427 14.5714C18.2286 14.8299 18.1946 15.1167 18.245 15.3948C18.2954 15.6728 18.428 15.9294 18.6256 16.1314L18.677 16.1828C18.8364 16.3421 18.9628 16.5311 19.0491 16.7392C19.1354 16.9473 19.1798 17.1704 19.1798 17.3957C19.1798 17.621 19.1354 17.8441 19.0491 18.0522C18.9628 18.2603 18.8364 18.4493 18.677 18.6086C18.5178 18.7679 18.3287 18.8944 18.1206 18.9807C17.9125 19.0669 17.6894 19.1113 17.4641 19.1113C17.2389 19.1113 17.0158 19.0669 16.8077 18.9807C16.5996 18.8944 16.4105 18.7679 16.2513 18.6086L16.1999 18.5571C15.9978 18.3595 15.7413 18.227 15.4632 18.1766C15.1852 18.1261 14.8984 18.1602 14.6399 18.2743C14.3863 18.3829 14.1701 18.5633 14.0178 18.7933C13.8655 19.0233 13.7838 19.2927 13.7827 19.5686V19.7143C13.7827 20.1689 13.6021 20.605 13.2806 20.9265C12.9591 21.2479 12.5231 21.4286 12.0684 21.4286C11.6138 21.4286 11.1777 21.2479 10.8562 20.9265C10.5348 20.605 10.3541 20.1689 10.3541 19.7143V19.6371C10.3475 19.3534 10.2557 19.0783 10.0906 18.8474C9.92549 18.6166 9.69478 18.4408 9.42843 18.3428C9.1699 18.2287 8.88312 18.1947 8.60507 18.2451C8.32702 18.2955 8.07044 18.4281 7.86843 18.6257L7.817 18.6771C7.65779 18.8365 7.46873 18.963 7.26062 19.0492C7.0525 19.1355 6.82943 19.1799 6.60415 19.1799C6.37886 19.1799 6.15579 19.1355 5.94768 19.0492C5.73957 18.963 5.5505 18.8365 5.39129 18.6771C5.2319 18.5179 5.10546 18.3288 5.01919 18.1207C4.93292 17.9126 4.88851 17.6896 4.88851 17.4643C4.88851 17.239 4.93292 17.0159 5.01919 16.8078C5.10546 16.5997 5.2319 16.4106 5.39129 16.2514L5.44272 16.2C5.64032 15.998 5.77288 15.7414 5.82329 15.4633C5.87371 15.1853 5.83967 14.8985 5.72557 14.64C5.61692 14.3865 5.43651 14.1703 5.20655 14.018C4.97658 13.8657 4.70711 13.7839 4.43129 13.7828H4.28557C3.83092 13.7828 3.39488 13.6022 3.07339 13.2807C2.7519 12.9592 2.57129 12.5232 2.57129 12.0686C2.57129 11.6139 2.7519 11.1779 3.07339 10.8564C3.39488 10.5349 3.83092 10.3543 4.28557 10.3543H4.36272C4.64643 10.3476 4.92158 10.2558 5.1524 10.0907C5.38323 9.92561 5.55905 9.6949 5.657 9.42855C5.7711 9.17003 5.80514 8.88325 5.75472 8.60519C5.70431 8.32714 5.57175 8.07056 5.37415 7.86855L5.32272 7.81713C5.16333 7.65791 5.03689 7.46885 4.95062 7.26074C4.86435 7.05263 4.81994 6.82955 4.81994 6.60427C4.81994 6.37898 4.86435 6.15591 4.95062 5.9478C5.03689 5.73969 5.16333 5.55062 5.32272 5.39141C5.48193 5.23202 5.67099 5.10558 5.87911 5.01931C6.08722 4.93304 6.31029 4.88863 6.53557 4.88863C6.76086 4.88863 6.98393 4.93304 7.19204 5.01931C7.40015 5.10558 7.58922 5.23202 7.74843 5.39141L7.79986 5.44284C8.00187 5.64044 8.25845 5.773 8.5365 5.82341C8.81455 5.87383 9.10133 5.8398 9.35986 5.7257H9.42843C9.68195 5.61704 9.89816 5.43663 10.0505 5.20667C10.2027 4.9767 10.2845 4.70723 10.2856 4.43141V4.2857C10.2856 3.83104 10.4662 3.395 10.7877 3.07351C11.1092 2.75202 11.5452 2.57141 11.9999 2.57141C12.4545 2.57141 12.8906 2.75202 13.212 3.07351C13.5335 3.395 13.7141 3.83104 13.7141 4.2857V4.36284C13.7152 4.63866 13.797 4.90813 13.9493 5.1381C14.1016 5.36806 14.3178 5.54847 14.5713 5.65713C14.8298 5.77122 15.1166 5.80526 15.3947 5.75484C15.6727 5.70443 15.9293 5.57187 16.1313 5.37427L16.1827 5.32284C16.3419 5.16345 16.531 5.03701 16.7391 4.95074C16.9472 4.86447 17.1703 4.82006 17.3956 4.82006C17.6209 4.82006 17.8439 4.86447 18.052 4.95074C18.2602 5.03701 18.4492 5.16345 18.6084 5.32284C18.7678 5.48205 18.8943 5.67112 18.9805 5.87923C19.0668 6.08734 19.1112 6.31041 19.1112 6.5357C19.1112 6.76098 19.0668 6.98405 18.9805 7.19217C18.8943 7.40028 18.7678 7.58934 18.6084 7.74855L18.557 7.79998C18.3594 8.00199 18.2268 8.25857 18.1764 8.53662C18.126 8.81467 18.16 9.10145 18.2741 9.35998V9.42855C18.3828 9.68207 18.5632 9.89828 18.7932 10.0506C19.0231 10.2029 19.2926 10.2846 19.5684 10.2857H19.7141C20.1688 10.2857 20.6048 10.4663 20.9263 10.7878C21.2478 11.1093 21.4284 11.5453 21.4284 12C21.4284 12.4546 21.2478 12.8907 20.9263 13.2122C20.6048 13.5337 20.1688 13.7143 19.7141 13.7143H19.637C19.3612 13.7154 19.0917 13.7971 18.8617 13.9494C18.6318 14.1017 18.4514 14.3179 18.3427 14.5714Z" stroke="#212224" stroke-width="1.3" stroke-linecap="round" stroke-linejoin="round"/>
</svg>
