<svg width="28" height="28" viewBox="0 0 28 28" fill="none" xmlns="http://www.w3.org/2000/svg">
<path d="M12 13.25C12 13.5467 12.088 13.8367 12.2528 14.0834C12.4176 14.33 12.6519 14.5223 12.926 14.6358C13.2001 14.7494 13.5017 14.7791 13.7926 14.7212C14.0836 14.6633 14.3509 14.5204 14.5607 14.3107C14.7704 14.1009 14.9133 13.8336 14.9712 13.5426C15.0291 13.2517 14.9994 12.9501 14.8858 12.676C14.7723 12.4019 14.58 12.1676 14.3334 12.0028C14.0867 11.838 13.7967 11.75 13.5 11.75C13.1022 11.75 12.7206 11.908 12.4393 12.1893C12.158 12.4706 12 12.8522 12 13.25ZM12 20.5C12 20.7967 12.088 21.0867 12.2528 21.3334C12.4176 21.58 12.6519 21.7723 12.926 21.8858C13.2001 21.9994 13.5017 22.0291 13.7926 21.9712C14.0836 21.9133 14.3509 21.7704 14.5607 21.5607C14.7704 21.3509 14.9133 21.0836 14.9712 20.7926C15.0291 20.5017 14.9994 20.2001 14.8858 19.926C14.7723 19.6519 14.58 19.4176 14.3334 19.2528C14.0867 19.088 13.7967 19 13.5 19C13.1022 19 12.7206 19.158 12.4393 19.4393C12.158 19.7206 12 20.1022 12 20.5ZM12 6C12 6.29667 12.088 6.58668 12.2528 6.83336C12.4176 7.08003 12.6519 7.27229 12.926 7.38582C13.2001 7.49935 13.5017 7.52906 13.7926 7.47118C14.0836 7.4133 14.3509 7.27044 14.5607 7.06066C14.7704 6.85088 14.9133 6.58361 14.9712 6.29264C15.0291 6.00167 14.9994 5.70007 14.8858 5.42598C14.7723 5.15189 14.58 4.91762 14.3334 4.7528C14.0867 4.58798 13.7967 4.5 13.5 4.5C13.1022 4.5 12.7206 4.65804 12.4393 4.93934C12.158 5.22065 12 5.60218 12 6Z" fill="#171D25"/>
</svg>
