<svg width="116" height="44" viewBox="0 0 116 44" fill="none" xmlns="http://www.w3.org/2000/svg">
<path d="M8.18526 7.37893H10.5645L12.002 20.1755L17.8805 7.31726H20.4131L12.3621 24.1532H10.4104L8.18526 7.37893ZM7.09476 7.37893H9.39704L7.8197 18.7763L6.8903 24.1532H4.13695L7.09476 7.37893ZM19.1468 7.31726H21.4819L18.5427 24.1532H15.7893L16.7884 18.522L19.1468 7.31726Z" fill="#1A1919"/>
<path d="M27.1852 24.3845C26.3564 24.3691 25.6555 24.2072 25.0824 23.8988C24.5093 23.5905 24.0562 23.1703 23.7231 22.6384C23.3979 22.1065 23.1771 21.5052 23.0609 20.8346C22.9525 20.1562 22.9331 19.4432 23.0029 18.6954L23.1539 17.4928C23.2468 16.722 23.425 15.9704 23.6883 15.238C23.9594 14.498 24.3195 13.835 24.7687 13.2492C25.2179 12.6633 25.7678 12.2046 26.4184 11.8731C27.0767 11.5417 27.8474 11.3836 28.7303 11.3991C29.5822 11.4222 30.2677 11.6149 30.7866 11.9772C31.3132 12.3318 31.7005 12.7982 31.9483 13.3764C32.2039 13.9545 32.3588 14.5943 32.413 15.2958C32.4673 15.9973 32.4479 16.6988 32.355 17.4003L32.1575 18.7532H24.2227L24.5828 16.7181L29.8223 16.7297L29.8688 16.4175C29.9308 16.0243 29.9463 15.6196 29.9153 15.2033C29.892 14.7871 29.7759 14.4325 29.5667 14.1395C29.3576 13.8466 29.0052 13.6847 28.5096 13.6539C27.9906 13.6307 27.5647 13.7387 27.2316 13.9776C26.8986 14.2166 26.6353 14.5365 26.4416 14.9374C26.248 15.3382 26.1047 15.7661 26.0118 16.2209C25.9188 16.668 25.8491 17.092 25.8027 17.4928L25.6516 18.707C25.6052 19.0924 25.5858 19.4817 25.5936 19.8748C25.6091 20.268 25.671 20.6342 25.7794 20.9733C25.8956 21.3048 26.0854 21.5746 26.3487 21.7828C26.6198 21.9909 26.9993 22.1027 27.4872 22.1181C28.0603 22.1335 28.5831 22.0256 29.0556 21.7943C29.528 21.5554 29.9617 21.247 30.3567 20.8693L31.3907 22.5344C31.0732 22.9661 30.6859 23.3207 30.2289 23.5982C29.772 23.868 29.2802 24.0684 28.7535 24.1995C28.2346 24.3305 27.7118 24.3922 27.1852 24.3845Z" fill="#1A1919"/>
<path d="M38.5462 14.4633L36.8616 24.1532H34.2012L36.3853 11.6419H38.8714L38.5462 14.4633ZM37.5819 17.4697L36.85 17.4813C36.9275 16.8183 37.063 16.1284 37.2566 15.4115C37.458 14.6946 37.7445 14.0316 38.1163 13.4226C38.4958 12.8059 38.9721 12.3087 39.5453 11.931C40.1184 11.5532 40.8116 11.3759 41.6248 11.3991C42.2676 11.4222 42.7788 11.5802 43.1583 11.8731C43.5378 12.1661 43.8128 12.5438 43.9832 13.0063C44.1613 13.4612 44.2658 13.9584 44.2968 14.498C44.3278 15.0376 44.3162 15.5656 44.262 16.0821L42.9143 24.1532H40.2772L41.6248 16.0474C41.6635 15.6928 41.6713 15.3382 41.648 14.9836C41.6325 14.629 41.5357 14.3284 41.3576 14.0817C41.1795 13.8273 40.8658 13.6963 40.4166 13.6886C39.9441 13.6654 39.5375 13.7811 39.1967 14.0355C38.8637 14.2898 38.5888 14.6136 38.3719 15.0068C38.155 15.3999 37.9846 15.8162 37.8607 16.2556C37.7368 16.695 37.6439 17.0997 37.5819 17.4697Z" fill="#1A1919"/>
<path d="M53.0206 21.0543L54.6587 11.6419H57.3191L55.135 24.1532H52.6489L53.0206 21.0543ZM53.7525 18.5451L54.4961 18.522C54.4186 19.1695 54.2947 19.844 54.1243 20.5455C53.9539 21.2393 53.7022 21.883 53.3692 22.4766C53.0439 23.0624 52.6102 23.5365 52.068 23.8988C51.5259 24.2534 50.8482 24.4192 50.0349 24.396C49.3844 24.3806 48.8616 24.2303 48.4666 23.9451C48.0716 23.6598 47.7734 23.2898 47.572 22.835C47.3784 22.3725 47.2584 21.8714 47.2119 21.3318C47.1732 20.7845 47.1848 20.2487 47.2467 19.7245L48.606 11.6419H51.2432L49.8839 19.7592C49.8607 19.9674 49.8452 20.2025 49.8374 20.4646C49.8374 20.7267 49.8646 20.9811 49.9188 21.2277C49.973 21.4667 50.0737 21.6671 50.2208 21.829C50.368 21.9909 50.5887 22.0757 50.883 22.0834C51.5568 22.122 52.0912 21.9601 52.4862 21.5978C52.8812 21.2277 53.1717 20.7614 53.3576 20.1986C53.5512 19.6359 53.6828 19.0847 53.7525 18.5451Z" fill="#1A1919"/>
<path d="M64.7999 21.6093L65.8106 15.3537C65.8416 15.0453 65.8338 14.7601 65.7874 14.498C65.7486 14.2282 65.6402 14.0085 65.4621 13.8389C65.2917 13.6693 65.0284 13.5806 64.6721 13.5729C64.3236 13.5652 64.0254 13.6385 63.7775 13.7926C63.5297 13.9391 63.3283 14.1395 63.1734 14.3939C63.0263 14.6483 62.9256 14.9335 62.8714 15.2496L60.2342 15.2727C60.2807 14.6637 60.4394 14.1203 60.7105 13.6423C60.9893 13.1644 61.3456 12.7558 61.7793 12.4166C62.213 12.0774 62.701 11.823 63.2431 11.6534C63.7853 11.4761 64.3429 11.3913 64.916 11.3991C65.7293 11.4068 66.4147 11.5802 66.9724 11.9194C67.53 12.2509 67.9366 12.7134 68.1922 13.307C68.4478 13.9006 68.533 14.602 68.4478 15.4115L67.4951 21.2624C67.4254 21.7095 67.3828 22.1605 67.3673 22.6153C67.3519 23.0624 67.3906 23.5057 67.4835 23.9451L67.4603 24.1532L64.858 24.1648C64.7495 23.7485 64.6992 23.3245 64.7069 22.8928C64.7147 22.4611 64.7457 22.0333 64.7999 21.6093ZM66.0429 16.5331L65.7525 18.2791L64.614 18.2676C64.2577 18.2676 63.9169 18.3177 63.5917 18.4179C63.2741 18.5181 62.9798 18.6646 62.7087 18.8573C62.4454 19.05 62.2285 19.2851 62.0581 19.5626C61.8955 19.8402 61.7909 20.1678 61.7445 20.5455C61.7057 20.8307 61.7096 21.0967 61.7561 21.3434C61.8103 21.5823 61.9187 21.7789 62.0814 21.9331C62.2518 22.0873 62.5035 22.1682 62.8365 22.1759C63.185 22.1759 63.5219 22.1027 63.8472 21.9562C64.1725 21.802 64.4475 21.5939 64.6721 21.3318C64.9044 21.0697 65.0516 20.7652 65.1135 20.4183L65.5666 21.5631C65.4505 21.9408 65.2878 22.3031 65.0787 22.65C64.8773 22.9892 64.6295 23.2937 64.3352 23.5635C64.0409 23.8256 63.7117 24.0337 63.3477 24.1879C62.9914 24.3421 62.6003 24.4153 62.1743 24.4076C61.4773 24.3999 60.8886 24.2342 60.4085 23.9104C59.9283 23.5789 59.5681 23.1395 59.328 22.5922C59.0879 22.0449 58.9872 21.4436 59.026 20.7883C59.0724 20.0483 59.2467 19.4123 59.5488 18.8804C59.8586 18.3408 60.2613 17.8975 60.757 17.5507C61.2604 17.2038 61.8258 16.9455 62.4531 16.7759C63.0805 16.6063 63.7388 16.5215 64.4281 16.5215L66.0429 16.5331Z" fill="#1A1919"/>
<path d="M76.4978 6.39221L73.4075 24.1532H70.7587L73.8606 6.39221H76.4978Z" fill="#1A1919"/>
<path d="M82.1081 11.6419L79.9356 24.1532H77.2868L79.4709 11.6419H82.1081ZM79.9124 8.4042C79.9201 7.98022 80.0557 7.61791 80.319 7.31726C80.5901 7.00891 80.9464 6.85088 81.3878 6.84317C81.8138 6.83547 82.1623 6.97808 82.4334 7.27101C82.7045 7.55624 82.8361 7.91084 82.8284 8.33482C82.8284 8.75109 82.6929 9.10955 82.4218 9.41019C82.1507 9.70313 81.7944 9.85345 81.353 9.86116C80.927 9.87657 80.5785 9.74553 80.3074 9.46801C80.0441 9.18279 79.9124 8.82818 79.9124 8.4042Z" fill="#1A1919"/>
<path d="M89.9258 20.7883C89.9722 20.4491 89.8948 20.1639 89.6934 19.9327C89.4998 19.6937 89.2558 19.4933 88.9615 19.3314C88.6749 19.1618 88.4039 19.0153 88.1483 18.892C87.7455 18.6915 87.3583 18.4796 86.9865 18.256C86.6148 18.0324 86.2856 17.7781 85.999 17.4928C85.7202 17.1999 85.5034 16.8684 85.3485 16.4984C85.1936 16.1207 85.1316 15.6774 85.1626 15.1686C85.1936 14.5828 85.333 14.0586 85.5808 13.5961C85.8364 13.1258 86.1694 12.725 86.5799 12.3935C86.9904 12.062 87.4551 11.8115 87.974 11.6419C88.5007 11.4723 89.0428 11.3913 89.6005 11.3991C90.3827 11.4222 91.0604 11.5956 91.6335 11.9194C92.2144 12.2355 92.6559 12.6826 92.9579 13.2607C93.2677 13.8312 93.4149 14.5057 93.3994 15.2843L90.7622 15.2727C90.7777 14.9721 90.7467 14.6907 90.6693 14.4286C90.5996 14.1588 90.4679 13.9391 90.2743 13.7695C90.0807 13.5999 89.8096 13.519 89.4611 13.5267C89.1513 13.5267 88.8724 13.5922 88.6246 13.7232C88.3768 13.8466 88.1715 14.0239 88.0089 14.2552C87.8462 14.4864 87.7417 14.7524 87.6952 15.053C87.6565 15.292 87.6875 15.504 87.7881 15.689C87.8888 15.8663 88.0282 16.0243 88.2064 16.1631C88.3845 16.2941 88.5781 16.4098 88.7872 16.51C88.9964 16.6102 89.1861 16.7027 89.3565 16.7875C89.9374 17.0573 90.4718 17.3541 90.9597 17.6778C91.4477 18.0016 91.8349 18.3986 92.1215 18.8689C92.408 19.3314 92.5281 19.9172 92.4816 20.6264C92.4506 21.2432 92.2996 21.7905 92.0285 22.2684C91.7652 22.7387 91.4167 23.1318 90.983 23.4479C90.5492 23.7639 90.0613 24.0029 89.5191 24.1648C88.977 24.3267 88.4155 24.3999 87.8346 24.3845C87.0446 24.3613 86.3476 24.1802 85.7435 23.841C85.1394 23.4941 84.6708 23.0239 84.3377 22.4303C84.0047 21.829 83.8459 21.1275 83.8614 20.3258L86.4289 20.3374C86.4134 20.7074 86.4483 21.0389 86.5334 21.3318C86.6264 21.6247 86.789 21.856 87.0214 22.0256C87.2615 22.1875 87.5868 22.2684 87.9973 22.2684C88.3148 22.2761 88.6091 22.2222 88.8802 22.1065C89.159 21.9909 89.3875 21.8252 89.5656 21.6093C89.7515 21.3935 89.8716 21.1198 89.9258 20.7883Z" fill="#1A1919"/>
<path d="M102.239 11.6419L101.868 13.7232H95.873L96.2448 11.6419H102.239ZM98.4056 8.57765H101.043L98.9749 20.6958C98.9516 20.8963 98.94 21.1005 98.94 21.3087C98.9478 21.5091 98.9981 21.6787 99.091 21.8175C99.184 21.9485 99.3583 22.0179 99.6138 22.0256C99.7455 22.0256 99.8772 22.0179 100.009 22.0025C100.148 21.9793 100.284 21.9562 100.415 21.9331L100.195 24.1301C99.9469 24.2149 99.6952 24.2766 99.4396 24.3151C99.1917 24.3536 98.9361 24.3691 98.6728 24.3613C98.0067 24.3536 97.4956 24.1763 97.1393 23.8294C96.7908 23.4825 96.5546 23.0431 96.4306 22.5112C96.3145 21.9716 96.2835 21.4166 96.3377 20.8461L98.4056 8.57765Z" fill="#1A1919"/>
<path d="M109.151 21.6093L110.162 15.3537C110.193 15.0453 110.185 14.7601 110.138 14.498C110.1 14.2282 109.991 14.0085 109.813 13.8389C109.643 13.6693 109.379 13.5806 109.023 13.5729C108.675 13.5652 108.376 13.6385 108.129 13.7926C107.881 13.9391 107.679 14.1395 107.524 14.3939C107.377 14.6483 107.277 14.9335 107.222 15.2496L104.585 15.2727C104.632 14.6637 104.79 14.1203 105.062 13.6423C105.34 13.1644 105.697 12.7558 106.13 12.4166C106.564 12.0774 107.052 11.823 107.594 11.6534C108.136 11.4761 108.694 11.3913 109.267 11.3991C110.08 11.4068 110.766 11.5802 111.323 11.9194C111.881 12.2509 112.288 12.7134 112.543 13.307C112.799 13.9006 112.884 14.602 112.799 15.4115L111.846 21.2624C111.776 21.7095 111.734 22.1605 111.718 22.6153C111.703 23.0624 111.742 23.5057 111.835 23.9451L111.811 24.1532L109.209 24.1648C109.101 23.7485 109.05 23.3245 109.058 22.8928C109.066 22.4611 109.097 22.0333 109.151 21.6093ZM110.394 16.5331L110.104 18.2791L108.965 18.2676C108.609 18.2676 108.268 18.3177 107.943 18.4179C107.625 18.5181 107.331 18.6646 107.06 18.8573C106.796 19.05 106.58 19.2851 106.409 19.5626C106.247 19.8402 106.142 20.1678 106.095 20.5455C106.057 20.8307 106.061 21.0967 106.107 21.3434C106.161 21.5823 106.27 21.7789 106.432 21.9331C106.603 22.0873 106.854 22.1682 107.188 22.1759C107.536 22.1759 107.873 22.1027 108.198 21.9562C108.524 21.802 108.798 21.5939 109.023 21.3318C109.255 21.0697 109.403 20.7652 109.465 20.4183L109.918 21.5631C109.801 21.9408 109.639 22.3031 109.43 22.65C109.228 22.9892 108.98 23.2937 108.686 23.5635C108.392 23.8256 108.063 24.0337 107.699 24.1879C107.342 24.3421 106.951 24.4153 106.525 24.4076C105.828 24.3999 105.24 24.2342 104.759 23.9104C104.279 23.5789 103.919 23.1395 103.679 22.5922C103.439 22.0449 103.338 21.4436 103.377 20.7883C103.423 20.0483 103.598 19.4123 103.9 18.8804C104.21 18.3408 104.612 17.8975 105.108 17.5507C105.611 17.2038 106.177 16.9455 106.804 16.7759C107.431 16.6063 108.09 16.5215 108.779 16.5215L110.394 16.5331Z" fill="#1A1919"/>
<path d="M7.48263 9.74707L10.3663 9.08834C10.2909 8.78023 10.232 8.54034 10.1897 8.36868C10.0267 7.70326 9.51907 7.37893 8.64978 7.37893H3.625V7.62667C4.85338 7.91869 5.73198 8.13451 6.2608 8.27413C6.85222 8.43091 7.23694 8.58243 7.39217 9.05636C7.44806 9.22661 7.42664 9.57684 7.48263 9.74707Z" fill="#1A1919"/>
<path d="M3.948 40.3832C3.26667 40.3832 2.67867 40.2339 2.184 39.9352C1.68933 39.6365 1.30667 39.2212 1.036 38.6892C0.774667 38.1479 0.644 37.5225 0.644 36.8132C0.644 36.0945 0.774667 35.4739 1.036 34.9512C1.30667 34.4285 1.68933 34.0272 2.184 33.7472C2.67867 33.4672 3.26667 33.3272 3.948 33.3272C4.368 33.3272 4.78333 33.4019 5.194 33.5512C5.60467 33.7005 5.94533 33.9105 6.216 34.1812L5.824 35.0072C5.55333 34.7459 5.25467 34.5545 4.928 34.4332C4.61067 34.3119 4.30733 34.2512 4.018 34.2512C3.30867 34.2512 2.76267 34.4752 2.38 34.9232C1.99733 35.3619 1.806 35.9965 1.806 36.8272C1.806 37.6392 1.99733 38.2832 2.38 38.7592C2.76267 39.2259 3.30867 39.4592 4.018 39.4592C4.30733 39.4592 4.61067 39.3985 4.928 39.2772C5.25467 39.1559 5.55333 38.9599 5.824 38.6892L6.216 39.5152C5.94533 39.7859 5.6 40.0005 5.18 40.1592C4.76933 40.3085 4.35867 40.3832 3.948 40.3832ZM10.2358 40.3832C9.57308 40.3832 8.99908 40.2385 8.51375 39.9492C8.02842 39.6599 7.65042 39.2539 7.37975 38.7312C7.11842 38.1992 6.98775 37.5739 6.98775 36.8552C6.98775 36.1365 7.11842 35.5159 7.37975 34.9932C7.65042 34.4612 8.02842 34.0505 8.51375 33.7612C8.99908 33.4719 9.57308 33.3272 10.2358 33.3272C10.8984 33.3272 11.4724 33.4719 11.9578 33.7612C12.4431 34.0505 12.8164 34.4612 13.0778 34.9932C13.3484 35.5159 13.4838 36.1365 13.4838 36.8552C13.4838 37.5739 13.3484 38.1992 13.0778 38.7312C12.8164 39.2539 12.4431 39.6599 11.9578 39.9492C11.4724 40.2385 10.8984 40.3832 10.2358 40.3832ZM10.2358 39.4732C10.8798 39.4732 11.3884 39.2492 11.7618 38.8012C12.1444 38.3439 12.3358 37.6905 12.3358 36.8412C12.3358 36.0012 12.1444 35.3572 11.7618 34.9092C11.3884 34.4612 10.8798 34.2372 10.2358 34.2372C9.60108 34.2372 9.09242 34.4612 8.70975 34.9092C8.32708 35.3572 8.13575 36.0012 8.13575 36.8412C8.13575 37.6905 8.32708 38.3439 8.70975 38.8012C9.09242 39.2492 9.60108 39.4732 10.2358 39.4732ZM15.187 40.2572V33.4532H16.293V34.9652H16.139C16.335 34.4239 16.6524 34.0179 17.091 33.7472C17.539 33.4672 18.0524 33.3272 18.631 33.3272C19.1724 33.3272 19.6204 33.4252 19.975 33.6212C20.339 33.8079 20.6097 34.1019 20.787 34.5032C20.9644 34.9045 21.053 35.4085 21.053 36.0152V40.2572H19.919V36.0852C19.919 35.6652 19.863 35.3199 19.751 35.0492C19.6484 34.7785 19.4804 34.5779 19.247 34.4472C19.023 34.3165 18.729 34.2512 18.365 34.2512C17.9544 34.2512 17.595 34.3399 17.287 34.5172C16.979 34.6945 16.741 34.9419 16.573 35.2592C16.405 35.5765 16.321 35.9499 16.321 36.3792V40.2572H15.187ZM25.0777 40.2572L22.1517 33.4532H23.3837L25.8197 39.4172H25.4417L27.9197 33.4532H29.0817L26.1417 40.2572H25.0777ZM33.2511 40.3832C32.5324 40.3832 31.9118 40.2432 31.3891 39.9632C30.8758 39.6739 30.4744 39.2679 30.1851 38.7452C29.9051 38.2225 29.7651 37.5972 29.7651 36.8692C29.7651 36.1599 29.9051 35.5439 30.1851 35.0212C30.4651 34.4892 30.8478 34.0739 31.3331 33.7752C31.8278 33.4765 32.3971 33.3272 33.0411 33.3272C33.6571 33.3272 34.1844 33.4625 34.6231 33.7332C35.0618 34.0039 35.3978 34.3865 35.6311 34.8812C35.8738 35.3759 35.9951 35.9685 35.9951 36.6592V37.0932H30.6331V36.3512H35.2391L35.0151 36.5332C35.0151 35.7865 34.8471 35.2079 34.5111 34.7972C34.1844 34.3772 33.7038 34.1672 33.0691 34.1672C32.5931 34.1672 32.1871 34.2792 31.8511 34.5032C31.5244 34.7179 31.2771 35.0212 31.1091 35.4132C30.9411 35.7959 30.8571 36.2439 30.8571 36.7572V36.8412C30.8571 37.4105 30.9458 37.8912 31.1231 38.2832C31.3098 38.6752 31.5851 38.9739 31.9491 39.1792C32.3131 39.3752 32.7471 39.4732 33.2511 39.4732C33.6524 39.4732 34.0398 39.4125 34.4131 39.2912C34.7958 39.1605 35.1551 38.9505 35.4911 38.6612L35.8831 39.4592C35.5751 39.7392 35.1831 39.9632 34.7071 40.1312C34.2311 40.2992 33.7458 40.3832 33.2511 40.3832ZM37.6363 40.2572V33.4532H38.7423V34.9652H38.5883C38.7843 34.4239 39.1016 34.0179 39.5403 33.7472C39.9883 33.4672 40.5016 33.3272 41.0803 33.3272C41.6216 33.3272 42.0696 33.4252 42.4243 33.6212C42.7883 33.8079 43.0589 34.1019 43.2363 34.5032C43.4136 34.9045 43.5023 35.4085 43.5023 36.0152V40.2572H42.3683V36.0852C42.3683 35.6652 42.3123 35.3199 42.2003 35.0492C42.0976 34.7785 41.9296 34.5779 41.6963 34.4472C41.4723 34.3165 41.1783 34.2512 40.8143 34.2512C40.4036 34.2512 40.0443 34.3399 39.7363 34.5172C39.4283 34.6945 39.1903 34.9419 39.0223 35.2592C38.8543 35.5765 38.7703 35.9499 38.7703 36.3792V40.2572H37.6363ZM45.4533 31.7592V30.4852H46.8533V31.7592H45.4533ZM45.5933 40.2572V33.4532H46.7273V40.2572H45.5933ZM51.9132 40.3832C51.1945 40.3832 50.5739 40.2432 50.0512 39.9632C49.5379 39.6739 49.1365 39.2679 48.8472 38.7452C48.5672 38.2225 48.4272 37.5972 48.4272 36.8692C48.4272 36.1599 48.5672 35.5439 48.8472 35.0212C49.1272 34.4892 49.5099 34.0739 49.9952 33.7752C50.4899 33.4765 51.0592 33.3272 51.7032 33.3272C52.3192 33.3272 52.8465 33.4625 53.2852 33.7332C53.7239 34.0039 54.0599 34.3865 54.2932 34.8812C54.5359 35.3759 54.6572 35.9685 54.6572 36.6592V37.0932H49.2952V36.3512H53.9012L53.6772 36.5332C53.6772 35.7865 53.5092 35.2079 53.1732 34.7972C52.8465 34.3772 52.3659 34.1672 51.7312 34.1672C51.2552 34.1672 50.8492 34.2792 50.5132 34.5032C50.1865 34.7179 49.9392 35.0212 49.7712 35.4132C49.6032 35.7959 49.5192 36.2439 49.5192 36.7572V36.8412C49.5192 37.4105 49.6079 37.8912 49.7852 38.2832C49.9719 38.6752 50.2472 38.9739 50.6112 39.1792C50.9752 39.3752 51.4092 39.4732 51.9132 39.4732C52.3145 39.4732 52.7019 39.4125 53.0752 39.2912C53.4579 39.1605 53.8172 38.9505 54.1532 38.6612L54.5452 39.4592C54.2372 39.7392 53.8452 39.9632 53.3692 40.1312C52.8932 40.2992 52.4079 40.3832 51.9132 40.3832ZM56.2984 40.2572V33.4532H57.4044V34.9652H57.2504C57.4464 34.4239 57.7637 34.0179 58.2024 33.7472C58.6504 33.4672 59.1637 33.3272 59.7424 33.3272C60.2837 33.3272 60.7317 33.4252 61.0864 33.6212C61.4504 33.8079 61.721 34.1019 61.8984 34.5032C62.0757 34.9045 62.1644 35.4085 62.1644 36.0152V40.2572H61.0304V36.0852C61.0304 35.6652 60.9744 35.3199 60.8624 35.0492C60.7597 34.7785 60.5917 34.5779 60.3584 34.4472C60.1344 34.3165 59.8404 34.2512 59.4764 34.2512C59.0657 34.2512 58.7064 34.3399 58.3984 34.5172C58.0904 34.6945 57.8524 34.9419 57.6844 35.2592C57.5164 35.5765 57.4324 35.9499 57.4324 36.3792V40.2572H56.2984ZM66.9854 40.3832C66.1827 40.3832 65.5807 40.1685 65.1794 39.7392C64.7781 39.3099 64.5774 38.6985 64.5774 37.9052V34.3352H63.2474V33.4532H64.5774V31.3672H65.7114V33.4532H67.8674V34.3352H65.7114V37.7932C65.7114 38.3252 65.8234 38.7312 66.0474 39.0112C66.2714 39.2819 66.6354 39.4172 67.1394 39.4172C67.2887 39.4172 67.4381 39.3985 67.5874 39.3612C67.7367 39.3239 67.8721 39.2865 67.9934 39.2492L68.1894 40.1172C68.0681 40.1825 67.8907 40.2432 67.6574 40.2992C67.4241 40.3552 67.2001 40.3832 66.9854 40.3832ZM75.0416 40.3832C74.687 40.3832 74.3416 40.3459 74.0056 40.2712C73.679 40.2059 73.371 40.1125 73.0816 39.9912C72.8016 39.8605 72.559 39.7065 72.3536 39.5292L72.7176 38.7312C72.9416 38.9085 73.1843 39.0579 73.4456 39.1792C73.707 39.2912 73.973 39.3752 74.2436 39.4312C74.5143 39.4872 74.7896 39.5152 75.0696 39.5152C75.6016 39.5152 76.003 39.4172 76.2736 39.2212C76.5443 39.0252 76.6796 38.7592 76.6796 38.4232C76.6796 38.1619 76.591 37.9565 76.4136 37.8072C76.2363 37.6485 75.9563 37.5272 75.5736 37.4432L74.2996 37.1632C73.7116 37.0419 73.273 36.8319 72.9836 36.5332C72.7036 36.2345 72.5636 35.8472 72.5636 35.3712C72.5636 34.9512 72.671 34.5919 72.8856 34.2932C73.1096 33.9852 73.4223 33.7472 73.8236 33.5792C74.225 33.4112 74.6916 33.3272 75.2236 33.3272C75.541 33.3272 75.8443 33.3599 76.1336 33.4252C76.423 33.4905 76.6936 33.5885 76.9456 33.7192C77.207 33.8405 77.431 33.9945 77.6176 34.1812L77.2396 34.9792C77.0623 34.8112 76.8616 34.6712 76.6376 34.5592C76.4136 34.4379 76.1803 34.3492 75.9376 34.2932C75.7043 34.2279 75.4663 34.1952 75.2236 34.1952C74.701 34.1952 74.3043 34.2979 74.0336 34.5032C73.763 34.7085 73.6276 34.9792 73.6276 35.3152C73.6276 35.5765 73.7116 35.7912 73.8796 35.9592C74.0476 36.1272 74.309 36.2485 74.6636 36.3232L75.9376 36.5892C76.5443 36.7199 76.997 36.9299 77.2956 37.2192C77.6036 37.4992 77.7576 37.8819 77.7576 38.3672C77.7576 38.7779 77.6456 39.1372 77.4216 39.4452C77.1976 39.7439 76.8803 39.9772 76.4696 40.1452C76.0683 40.3039 75.5923 40.3832 75.0416 40.3832ZM82.5519 40.3832C81.8332 40.3832 81.2125 40.2432 80.6899 39.9632C80.1765 39.6739 79.7752 39.2679 79.4859 38.7452C79.2059 38.2225 79.0659 37.5972 79.0659 36.8692C79.0659 36.1599 79.2059 35.5439 79.4859 35.0212C79.7659 34.4892 80.1485 34.0739 80.6339 33.7752C81.1285 33.4765 81.6979 33.3272 82.3419 33.3272C82.9579 33.3272 83.4852 33.4625 83.9239 33.7332C84.3625 34.0039 84.6985 34.3865 84.9319 34.8812C85.1745 35.3759 85.2959 35.9685 85.2959 36.6592V37.0932H79.9339V36.3512H84.5399L84.3159 36.5332C84.3159 35.7865 84.1479 35.2079 83.8119 34.7972C83.4852 34.3772 83.0045 34.1672 82.3699 34.1672C81.8939 34.1672 81.4879 34.2792 81.1519 34.5032C80.8252 34.7179 80.5779 35.0212 80.4099 35.4132C80.2419 35.7959 80.1579 36.2439 80.1579 36.7572V36.8412C80.1579 37.4105 80.2465 37.8912 80.4239 38.2832C80.6105 38.6752 80.8859 38.9739 81.2499 39.1792C81.6139 39.3752 82.0479 39.4732 82.5519 39.4732C82.9532 39.4732 83.3405 39.4125 83.7139 39.2912C84.0965 39.1605 84.4559 38.9505 84.7919 38.6612L85.1839 39.4592C84.8759 39.7392 84.4839 39.9632 84.0079 40.1312C83.5319 40.2992 83.0465 40.3832 82.5519 40.3832ZM86.937 40.2572V33.4532H88.043V35.0632H87.903C88.0617 34.5125 88.337 34.0972 88.729 33.8172C89.121 33.5279 89.639 33.3599 90.283 33.3132L90.689 33.2712L90.773 34.2512L90.059 34.3352C89.4244 34.3912 88.9344 34.5965 88.589 34.9512C88.253 35.2965 88.085 35.7725 88.085 36.3792V40.2572H86.937ZM94.3805 40.2572L91.4545 33.4532H92.6865L95.1225 39.4172H94.7445L97.2225 33.4532H98.3845L95.4445 40.2572H94.3805ZM99.4435 31.7592V30.4852H100.844V31.7592H99.4435ZM99.5835 40.2572V33.4532H100.718V40.2572H99.5835ZM105.721 40.3832C105.04 40.3832 104.452 40.2339 103.957 39.9352C103.463 39.6365 103.08 39.2212 102.809 38.6892C102.548 38.1479 102.417 37.5225 102.417 36.8132C102.417 36.0945 102.548 35.4739 102.809 34.9512C103.08 34.4285 103.463 34.0272 103.957 33.7472C104.452 33.4672 105.04 33.3272 105.721 33.3272C106.141 33.3272 106.557 33.4019 106.967 33.5512C107.378 33.7005 107.719 33.9105 107.989 34.1812L107.597 35.0072C107.327 34.7459 107.028 34.5545 106.701 34.4332C106.384 34.3119 106.081 34.2512 105.791 34.2512C105.082 34.2512 104.536 34.4752 104.153 34.9232C103.771 35.3619 103.579 35.9965 103.579 36.8272C103.579 37.6392 103.771 38.2832 104.153 38.7592C104.536 39.2259 105.082 39.4592 105.791 39.4592C106.081 39.4592 106.384 39.3985 106.701 39.2772C107.028 39.1559 107.327 38.9599 107.597 38.6892L107.989 39.5152C107.719 39.7859 107.373 40.0005 106.953 40.1592C106.543 40.3085 106.132 40.3832 105.721 40.3832ZM112.247 40.3832C111.529 40.3832 110.908 40.2432 110.385 39.9632C109.872 39.6739 109.471 39.2679 109.181 38.7452C108.901 38.2225 108.761 37.5972 108.761 36.8692C108.761 36.1599 108.901 35.5439 109.181 35.0212C109.461 34.4892 109.844 34.0739 110.329 33.7752C110.824 33.4765 111.393 33.3272 112.037 33.3272C112.653 33.3272 113.181 33.4625 113.619 33.7332C114.058 34.0039 114.394 34.3865 114.627 34.8812C114.87 35.3759 114.991 35.9685 114.991 36.6592V37.0932H109.629V36.3512H114.235L114.011 36.5332C114.011 35.7865 113.843 35.2079 113.507 34.7972C113.181 34.3772 112.7 34.1672 112.065 34.1672C111.589 34.1672 111.183 34.2792 110.847 34.5032C110.521 34.7179 110.273 35.0212 110.105 35.4132C109.937 35.7959 109.853 36.2439 109.853 36.7572V36.8412C109.853 37.4105 109.942 37.8912 110.119 38.2832C110.306 38.6752 110.581 38.9739 110.945 39.1792C111.309 39.3752 111.743 39.4732 112.247 39.4732C112.649 39.4732 113.036 39.4125 113.409 39.2912C113.792 39.1605 114.151 38.9505 114.487 38.6612L114.879 39.4592C114.571 39.7392 114.179 39.9632 113.703 40.1312C113.227 40.2992 112.742 40.3832 112.247 40.3832Z" fill="#A9A9A9"/>
</svg>
