<svg width="222" height="36" viewBox="0 0 222 36" fill="none" xmlns="http://www.w3.org/2000/svg">
<path d="M16.0532 1.96832H20.7195L23.5386 26.9757L35.0675 1.8478H40.0345L24.245 34.7491H20.4172L16.0532 1.96832ZM13.9145 1.96832H18.4298L15.3363 24.2415L13.5135 34.7491H8.11365L13.9145 1.96832ZM37.551 1.8478H42.1307L36.3662 34.7491H30.9663L32.9258 23.7443L37.551 1.8478Z" fill="#F9F9F9"/>
<path d="M53.316 35.201C51.6907 35.1709 50.316 34.8545 49.192 34.2519C48.068 33.6493 47.1794 32.8283 46.5262 31.7889C45.8883 30.7494 45.4554 29.5743 45.2275 28.2637C45.0149 26.938 44.9769 25.5445 45.1136 24.0833L45.4098 21.7332C45.5921 20.2267 45.9414 18.7579 46.4579 17.3268C46.9895 15.8806 47.6958 14.585 48.5768 13.4401C49.4578 12.2952 50.5363 11.3988 51.8122 10.751C53.1033 10.1032 54.6147 9.79442 56.3463 9.82455C58.0171 9.86974 59.3614 10.2464 60.3791 10.9544C61.412 11.6474 62.1715 12.5588 62.6575 13.6886C63.1588 14.8185 63.4626 16.0689 63.5689 17.4397C63.6752 18.8106 63.6373 20.1815 63.455 21.5524L63.0677 24.1963H47.506L48.2123 20.2192L58.488 20.2418L58.5791 19.6317C58.7007 18.8634 58.731 18.0725 58.6703 17.259C58.6247 16.4455 58.3969 15.7525 57.9867 15.18C57.5766 14.6076 56.8855 14.2912 55.9134 14.231C54.8957 14.1858 54.0602 14.3967 53.4071 14.8637C52.7539 15.3307 52.2375 15.9559 51.8578 16.7392C51.478 17.5226 51.197 18.3587 51.0147 19.2475C50.8325 20.1213 50.6958 20.9498 50.6046 21.7332L50.3084 24.1059C50.2173 24.8591 50.1793 25.6199 50.1945 26.3882C50.2249 27.1565 50.3464 27.872 50.5591 28.5349C50.7869 29.1827 51.159 29.7099 51.6755 30.1167C52.2071 30.5234 52.9514 30.7419 53.9084 30.772C55.0324 30.8021 56.0577 30.5912 56.9842 30.1393C57.9108 29.6723 58.7614 29.0697 59.5361 28.3315L61.5639 31.5855C60.9411 32.4291 60.1816 33.1221 59.2855 33.6644C58.3893 34.1917 57.4247 34.5834 56.3918 34.8395C55.3741 35.0956 54.3488 35.2161 53.316 35.201Z" fill="#F9F9F9"/>
<path d="M75.5972 15.8128L72.2935 34.7491H67.0759L71.3593 10.2991H76.2352L75.5972 15.8128ZM73.7061 21.688L72.2707 21.7106C72.4226 20.415 72.6884 19.0667 73.0682 17.6657C73.4631 16.2647 74.0251 14.9691 74.7542 13.779C75.4985 12.5739 76.4326 11.6022 77.5567 10.864C78.6807 10.1258 80.0402 9.77936 81.6351 9.82455C82.8958 9.86974 83.8983 10.1786 84.6426 10.751C85.3869 11.3235 85.9261 12.0617 86.2603 12.9655C86.6097 13.8544 86.8147 14.826 86.8755 15.8806C86.9362 16.9351 86.9134 17.967 86.8071 18.9763L84.1641 34.7491H78.9921L81.6351 18.9086C81.711 18.2156 81.7262 17.5226 81.6806 16.8296C81.6503 16.1367 81.4604 15.5491 81.111 15.0671C80.7617 14.5699 80.1465 14.3138 79.2655 14.2988C78.3389 14.2536 77.5415 14.4795 76.8731 14.9767C76.22 15.4738 75.6808 16.1065 75.2555 16.8748C74.8301 17.6431 74.496 18.4566 74.2529 19.3153C74.0099 20.174 73.8276 20.9649 73.7061 21.688Z" fill="#F9F9F9"/>
<path d="M103.985 28.6931L107.197 10.2991H112.415L108.131 34.7491H103.256L103.985 28.6931ZM105.42 23.7895L106.878 23.7443C106.726 25.0097 106.483 26.3279 106.149 27.6988C105.815 29.0546 105.321 30.3125 104.668 31.4725C104.03 32.6174 103.18 33.5439 102.116 34.2519C101.053 34.9449 99.724 35.2688 98.1291 35.2236C96.8532 35.1935 95.8279 34.8997 95.0532 34.3423C94.2786 33.7849 93.6938 33.0618 93.2988 32.173C92.9191 31.2691 92.6837 30.2899 92.5925 29.2354C92.5166 28.1658 92.5393 27.1188 92.6609 26.0944L95.3266 10.2991H100.499L97.8329 26.1622C97.7873 26.5689 97.757 27.0284 97.7418 27.5406C97.7418 28.0528 97.7949 28.5499 97.9013 29.032C98.0076 29.499 98.2051 29.8907 98.4937 30.2071C98.7823 30.5234 99.2152 30.6891 99.7924 30.7042C101.114 30.7795 102.162 30.4632 102.937 29.7551C103.711 29.032 104.281 28.1206 104.645 27.0209C105.025 25.9212 105.283 24.844 105.42 23.7895Z" fill="#F9F9F9"/>
<path d="M127.086 29.7777L129.068 17.5527C129.129 16.9501 129.114 16.3928 129.023 15.8806C128.947 15.3533 128.734 14.9239 128.385 14.5925C128.051 14.2611 127.534 14.0879 126.836 14.0728C126.152 14.0577 125.567 14.2008 125.081 14.5021C124.595 14.7884 124.2 15.18 123.896 15.6772C123.608 16.1743 123.41 16.7317 123.304 17.3494L118.132 17.3946C118.223 16.2044 118.534 15.1424 119.066 14.2084C119.613 13.2744 120.312 12.4759 121.162 11.8131C122.013 11.1502 122.97 10.6531 124.033 10.3217C125.096 9.9752 126.19 9.80949 127.314 9.82455C128.909 9.83961 130.253 10.1786 131.347 10.8414C132.441 11.4892 133.238 12.3931 133.739 13.5531C134.24 14.713 134.408 16.0839 134.24 17.6657L132.372 29.0998C132.235 29.9736 132.152 30.8548 132.122 31.7437C132.091 32.6174 132.167 33.4836 132.349 34.3423L132.304 34.7491L127.2 34.7717C126.987 33.9582 126.889 33.1296 126.904 32.286C126.919 31.4424 126.98 30.6063 127.086 29.7777ZM129.524 19.8576L128.955 23.2698L126.722 23.2472C126.023 23.2472 125.355 23.3451 124.717 23.5409C124.094 23.7368 123.517 24.023 122.985 24.3996C122.469 24.7762 122.043 25.2357 121.709 25.778C121.39 26.3204 121.185 26.9606 121.094 27.6988C121.018 28.2562 121.026 28.7759 121.117 29.258C121.223 29.725 121.436 30.1091 121.755 30.4104C122.089 30.7117 122.582 30.8699 123.236 30.885C123.919 30.885 124.58 30.7419 125.218 30.4556C125.856 30.1543 126.395 29.7476 126.836 29.2354C127.291 28.7232 127.58 28.1281 127.701 27.4502L128.59 29.6873C128.362 30.4255 128.043 31.1335 127.633 31.8115C127.238 32.4743 126.752 33.0694 126.175 33.5966C125.598 34.1088 124.952 34.5156 124.238 34.8169C123.539 35.1182 122.772 35.2613 121.937 35.2462C120.57 35.2311 119.415 34.9072 118.474 34.2745C117.532 33.6267 116.826 32.7681 116.355 31.6985C115.884 30.6289 115.686 29.4538 115.762 28.1733C115.854 26.7271 116.195 25.4843 116.788 24.4448C117.395 23.3903 118.185 22.5241 119.157 21.8462C120.145 21.1683 121.253 20.6636 122.484 20.3322C123.714 20.0007 125.005 19.835 126.357 19.835L129.524 19.8576Z" fill="#F9F9F9"/>
<path d="M150.028 0.0400391L143.968 34.7491H138.773L144.856 0.0400391H150.028Z" fill="#F9F9F9"/>
<path d="M161.031 10.2991L156.771 34.7491H151.576L155.859 10.2991H161.031ZM156.725 3.97192C156.74 3.14336 157.006 2.43532 157.522 1.8478C158.054 1.24521 158.753 0.936388 159.619 0.921323C160.454 0.906258 161.138 1.18495 161.669 1.75741C162.201 2.31481 162.459 3.00778 162.444 3.83634C162.444 4.64983 162.178 5.35034 161.646 5.93786C161.115 6.51032 160.416 6.80408 159.55 6.81915C158.715 6.84928 158.031 6.59318 157.5 6.05085C156.983 5.49345 156.725 4.80048 156.725 3.97192Z" fill="#F9F9F9"/>
<path d="M176.363 28.1733C176.454 27.5105 176.302 26.9531 175.908 26.5012C175.528 26.0341 175.049 25.6425 174.472 25.3261C173.91 24.9947 173.378 24.7085 172.877 24.4674C172.087 24.0757 171.328 23.6615 170.599 23.2246C169.87 22.7877 169.224 22.2906 168.662 21.7332C168.115 21.1607 167.69 20.5129 167.386 19.7898C167.082 19.0517 166.961 18.1854 167.022 17.1912C167.082 16.0463 167.356 15.0219 167.842 14.118C168.343 13.199 168.996 12.4157 169.801 11.7679C170.606 11.1201 171.518 10.6305 172.535 10.2991C173.568 9.96766 174.632 9.80949 175.725 9.82455C177.259 9.86974 178.589 10.2087 179.713 10.8414C180.852 11.4591 181.718 12.3328 182.31 13.4627C182.918 14.5775 183.206 15.8956 183.176 17.4171L178.004 17.3946C178.034 16.807 177.973 16.2572 177.821 15.745C177.685 15.2177 177.427 14.7884 177.047 14.4569C176.667 14.1255 176.135 13.9673 175.452 13.9824C174.844 13.9824 174.297 14.1105 173.811 14.3666C173.325 14.6076 172.923 14.9541 172.604 15.406C172.285 15.858 172.08 16.3777 171.989 16.9652C171.913 17.4322 171.973 17.8465 172.171 18.208C172.368 18.5545 172.642 18.8634 172.991 19.1345C173.341 19.3906 173.72 19.6166 174.13 19.8124C174.54 20.0083 174.913 20.1891 175.247 20.3548C176.386 20.882 177.434 21.462 178.391 22.0947C179.348 22.7274 180.107 23.5033 180.669 24.4222C181.232 25.3261 181.467 26.471 181.376 27.857C181.315 29.0621 181.019 30.1317 180.487 31.0658C179.971 31.9847 179.287 32.753 178.437 33.3706C177.586 33.9883 176.629 34.4553 175.566 34.7717C174.503 35.088 173.401 35.2311 172.262 35.201C170.713 35.1558 169.346 34.8018 168.161 34.1389C166.976 33.461 166.057 32.5421 165.404 31.3821C164.751 30.2071 164.439 28.8362 164.47 27.2695L169.505 27.292C169.475 28.0152 169.543 28.6629 169.71 29.2354C169.892 29.8078 170.211 30.2598 170.667 30.5912C171.138 30.9076 171.776 31.0658 172.581 31.0658C173.204 31.0808 173.781 30.9754 174.313 30.7494C174.859 30.5234 175.308 30.1995 175.657 29.7777C176.021 29.3559 176.257 28.8211 176.363 28.1733Z" fill="#F9F9F9"/>
<path d="M200.513 10.2991L199.784 14.3666H188.027L188.756 10.2991H200.513ZM192.994 4.31088H198.166L194.11 27.9926C194.065 28.3842 194.042 28.7835 194.042 29.1902C194.057 29.5819 194.156 29.9133 194.338 30.1845C194.521 30.4406 194.862 30.5761 195.364 30.5912C195.622 30.5912 195.88 30.5761 196.138 30.546C196.412 30.5008 196.677 30.4556 196.936 30.4104L196.503 34.7039C196.017 34.8696 195.523 34.9901 195.022 35.0654C194.536 35.1407 194.034 35.1709 193.518 35.1558C192.212 35.1407 191.209 34.7943 190.51 34.1163C189.827 33.4384 189.364 32.5798 189.121 31.5403C188.893 30.4858 188.832 29.4011 188.938 28.2863L192.994 4.31088Z" fill="#F9F9F9"/>
<path d="M214.068 29.7777L216.05 17.5527C216.111 16.9501 216.095 16.3928 216.004 15.8806C215.928 15.3533 215.716 14.9239 215.366 14.5925C215.032 14.2611 214.516 14.0879 213.817 14.0728C213.134 14.0577 212.549 14.2008 212.063 14.5021C211.577 14.7884 211.182 15.18 210.878 15.6772C210.589 16.1743 210.392 16.7317 210.285 17.3494L205.113 17.3946C205.205 16.2044 205.516 15.1424 206.048 14.2084C206.594 13.2744 207.293 12.4759 208.144 11.8131C208.994 11.1502 209.951 10.6531 211.015 10.3217C212.078 9.9752 213.172 9.80949 214.296 9.82455C215.89 9.83961 217.235 10.1786 218.328 10.8414C219.422 11.4892 220.219 12.3931 220.721 13.5531C221.222 14.713 221.389 16.0839 221.222 17.6657L219.354 29.0998C219.217 29.9736 219.133 30.8548 219.103 31.7437C219.073 32.6174 219.149 33.4836 219.331 34.3423L219.285 34.7491L214.182 34.7717C213.969 33.9582 213.87 33.1296 213.885 32.286C213.901 31.4424 213.961 30.6063 214.068 29.7777ZM216.506 19.8576L215.936 23.2698L213.703 23.2472C213.004 23.2472 212.336 23.3451 211.698 23.5409C211.075 23.7368 210.498 24.023 209.967 24.3996C209.45 24.7762 209.025 25.2357 208.691 25.778C208.372 26.3204 208.167 26.9606 208.075 27.6988C207.999 28.2562 208.007 28.7759 208.098 29.258C208.205 29.725 208.417 30.1091 208.736 30.4104C209.07 30.7117 209.564 30.8699 210.217 30.885C210.901 30.885 211.561 30.7419 212.199 30.4556C212.837 30.1543 213.377 29.7476 213.817 29.2354C214.273 28.7232 214.561 28.1281 214.683 27.4502L215.571 29.6873C215.344 30.4255 215.025 31.1335 214.615 31.8115C214.22 32.4743 213.734 33.0694 213.156 33.5966C212.579 34.1088 211.934 34.5156 211.22 34.8169C210.521 35.1182 209.754 35.2613 208.918 35.2462C207.551 35.2311 206.397 34.9072 205.455 34.2745C204.513 33.6267 203.807 32.7681 203.336 31.6985C202.865 30.6289 202.668 29.4538 202.744 28.1733C202.835 26.7271 203.177 25.4843 203.769 24.4448C204.377 23.3903 205.167 22.5241 206.139 21.8462C207.126 21.1683 208.235 20.6636 209.465 20.3322C210.696 20.0007 211.987 19.835 213.339 19.835L216.506 19.8576Z" fill="#F9F9F9"/>
<path d="M14.6752 6.59619L20.3306 5.30888C20.1828 4.70676 20.0673 4.23797 19.9843 3.9025C19.6646 2.60213 18.6691 1.96832 16.9643 1.96832H7.10962V2.45245C9.51873 3.02311 11.2418 3.44488 12.279 3.71774C13.4389 4.02412 14.1934 4.32023 14.4978 5.24639C14.6074 5.5791 14.5654 6.26352 14.6752 6.59619Z" fill="#F9F9F9"/>
</svg>
