<svg width="40" height="40" viewBox="0 0 40 40" fill="none" xmlns="http://www.w3.org/2000/svg">
<path fill-rule="evenodd" clip-rule="evenodd" d="M5.8335 17.1962C5.8335 9.52974 12.24 3.33325 19.9892 3.33325C27.7604 3.33325 34.1668 9.52974 34.1668 17.1962C34.1668 21.0594 32.7618 24.646 30.4493 27.6859C27.8982 31.0391 24.7538 33.9607 21.2144 36.254C20.4043 36.7839 19.6733 36.8239 18.7842 36.254C15.2247 33.9607 12.0803 31.0391 9.551 27.6859C7.2368 24.646 5.8335 21.0594 5.8335 17.1962ZM15.3239 17.6278C15.3239 20.1961 17.4196 22.216 19.9892 22.216C22.5606 22.216 24.6764 20.1961 24.6764 17.6278C24.6764 15.0796 22.5606 12.9613 19.9892 12.9613C17.4196 12.9613 15.3239 15.0796 15.3239 17.6278Z" fill="#BA3127"/>
</svg>
