<svg width="40" height="40" viewBox="0 0 40 40" fill="none" xmlns="http://www.w3.org/2000/svg">
<path d="M20.1553 3C12.406 3 5.99951 9.19649 5.99951 16.8629C5.99951 20.7262 7.40282 24.3127 9.71701 27.3526C12.2463 30.7059 15.3907 33.6274 18.9503 35.9207C19.8393 36.4907 20.5704 36.4507 21.3804 35.9207C24.9198 33.6274 28.0642 30.7059 30.6153 27.3526C32.9279 24.3127 34.3328 20.7262 34.3328 16.8629C34.3328 9.19649 27.9264 3 20.1553 3Z" fill="#BA3127"/>
<circle cx="20.1662" cy="16.9999" r="10.6667" fill="white"/>
<path d="M23.3816 17.3815H24.5816V19.4295H23.3816V21.3335H21.1576V19.4295H15.8616V17.3815L19.5896 10.1335H21.9576L18.2456 17.3815H21.1576V14.7255H23.3816V17.3815Z" fill="#BA3127"/>
</svg>
